<svg width="24" height="24" viewBox="0 0 24 24" fill="none" xmlns="http://www.w3.org/2000/svg">
<path d="M11.5104 6.15C11.5324 6.10502 11.5665 6.06711 11.6089 6.04058C11.6514 6.01406 11.7004 6 11.7504 6C11.8005 6 11.8495 6.01406 11.892 6.04058C11.9344 6.06711 11.9685 6.10502 11.9904 6.15L12.9414 8.0775C12.9605 8.11649 12.9887 8.15025 13.0238 8.17587C13.0588 8.20148 13.0995 8.21817 13.1424 8.2245L15.2724 8.5335C15.4899 8.565 15.5784 8.8335 15.4194 8.988L13.8804 10.4895C13.8494 10.5198 13.8262 10.5572 13.8129 10.5985C13.7995 10.6398 13.7965 10.6838 13.8039 10.7265L14.1669 12.8475C14.1751 12.8965 14.1694 12.9468 14.1506 12.9927C14.1317 13.0386 14.1005 13.0784 14.0603 13.1075C14.0201 13.1367 13.9725 13.154 13.923 13.1576C13.8735 13.1613 13.8239 13.151 13.7799 13.128L11.8749 12.126C11.8368 12.106 11.7943 12.0956 11.7512 12.0956C11.7081 12.0956 11.6656 12.106 11.6274 12.126L9.72244 13.128C9.67848 13.1506 9.62912 13.1605 9.57985 13.1567C9.53057 13.1529 9.48333 13.1355 9.44337 13.1064C9.40341 13.0773 9.3723 13.0377 9.35351 12.992C9.33472 12.9463 9.32898 12.8963 9.33694 12.8475L9.69994 10.7265C9.7076 10.6839 9.70477 10.64 9.69171 10.5987C9.67864 10.5575 9.65573 10.52 9.62494 10.4895L8.07994 8.988C8.04455 8.95325 8.01954 8.90934 8.00771 8.86117C7.99588 8.81301 7.99769 8.7625 8.01296 8.71531C8.02822 8.66812 8.05632 8.62612 8.09412 8.59401C8.13192 8.56189 8.17791 8.54094 8.22694 8.5335L10.3569 8.2245C10.3999 8.21817 10.4406 8.20148 10.4756 8.17587C10.5107 8.15025 10.5389 8.11649 10.5579 8.0775L11.5104 6.15Z" fill="black"/>
<path d="M3 3C3 2.20435 3.31607 1.44129 3.87868 0.87868C4.44129 0.316071 5.20435 0 6 0L18 0C18.7956 0 19.5587 0.316071 20.1213 0.87868C20.6839 1.44129 21 2.20435 21 3V23.25C20.9999 23.3857 20.9631 23.5188 20.8933 23.6351C20.8236 23.7515 20.7236 23.8468 20.604 23.9108C20.4844 23.9748 20.3497 24.0052 20.2142 23.9988C20.0787 23.9923 19.9474 23.9492 19.8345 23.874L12 19.6515L4.1655 23.874C4.05256 23.9492 3.92135 23.9923 3.78584 23.9988C3.65033 24.0052 3.5156 23.9748 3.396 23.9108C3.2764 23.8468 3.17641 23.7515 3.10667 23.6351C3.03694 23.5188 3.00007 23.3857 3 23.25V3ZM6 1.5C5.60218 1.5 5.22064 1.65804 4.93934 1.93934C4.65804 2.22064 4.5 2.60218 4.5 3V21.849L11.5845 18.126C11.7076 18.0441 11.8521 18.0004 12 18.0004C12.1479 18.0004 12.2924 18.0441 12.4155 18.126L19.5 21.849V3C19.5 2.60218 19.342 2.22064 19.0607 1.93934C18.7794 1.65804 18.3978 1.5 18 1.5H6Z" fill="black"/>
</svg>
