<svg width="24" height="24" viewBox="0 0 24 24" fill="none" xmlns="http://www.w3.org/2000/svg">
<path d="M10.568 7.51147L3.37403 15.733C2.52503 16.7035 3.21503 18.2215 4.50353 18.2215H18.8915C19.1799 18.2217 19.4622 18.1388 19.7047 17.9828C19.9472 17.8267 20.1395 17.604 20.2587 17.3414C20.3779 17.0788 20.4189 16.7875 20.3767 16.5022C20.3345 16.2169 20.2111 15.9499 20.021 15.733L12.827 7.51297C12.6862 7.35186 12.5126 7.22273 12.3178 7.13425C12.123 7.04577 11.9115 7 11.6975 7C11.4836 7 11.2721 7.04577 11.0773 7.13425C10.8824 7.22273 10.7088 7.35186 10.568 7.51297V7.51147Z" fill="black"/>
</svg>
