<svg width="24" height="24" viewBox="0 0 24 24" fill="none" xmlns="http://www.w3.org/2000/svg">
<path d="M18.71 12.8248L10.487 20.0188C9.518 20.8678 8 20.1778 8 18.8893V4.50129C7.99975 4.21292 8.08263 3.93059 8.23871 3.68812C8.39479 3.44564 8.61746 3.2533 8.88004 3.13411C9.14262 3.01493 9.434 2.97396 9.71927 3.01611C10.0045 3.05827 10.2716 3.18175 10.4885 3.37179L18.7085 10.5658C18.8696 10.7066 18.9987 10.8802 19.0872 11.075C19.1757 11.2698 19.2215 11.4813 19.2215 11.6953C19.2215 11.9093 19.1757 12.1207 19.0872 12.3156C18.9987 12.5104 18.8696 12.684 18.7085 12.8248H18.71Z" fill="black"/>
</svg>
