<svg width="24" height="24" viewBox="0 0 24 24" fill="none" xmlns="http://www.w3.org/2000/svg">
<path d="M5.51147 12.8248L13.7345 20.0188C14.7035 20.8678 16.2215 20.1778 16.2215 18.8893V4.50129C16.2217 4.21292 16.1388 3.93059 15.9828 3.68812C15.8267 3.44564 15.604 3.2533 15.3414 3.13411C15.0788 3.01493 14.7875 2.97396 14.5022 3.01611C14.2169 3.05827 13.9499 3.18175 13.733 3.37179L5.51297 10.5658C5.35186 10.7066 5.22273 10.8802 5.13425 11.075C5.04577 11.2698 5 11.4813 5 11.6953C5 11.9093 5.04577 12.1207 5.13425 12.3156C5.22273 12.5104 5.35186 12.684 5.51297 12.8248H5.51147Z" fill="black"/>
</svg>
