<svg width="24" height="24" viewBox="0 0 24 24" fill="none" xmlns="http://www.w3.org/2000/svg">
<path fill-rule="evenodd" clip-rule="evenodd" d="M11.2199 4.22034C11.2896 4.1505 11.3724 4.09508 11.4635 4.05727C11.5546 4.01946 11.6523 4 11.7509 4C11.8496 4 11.9473 4.01946 12.0384 4.05727C12.1295 4.09508 12.2123 4.1505 12.2819 4.22034L21.2819 13.2203C21.4228 13.3612 21.5019 13.5522 21.5019 13.7513C21.5019 13.9505 21.4228 14.1415 21.2819 14.2823C21.1411 14.4232 20.9501 14.5023 20.7509 14.5023C20.5518 14.5023 20.3608 14.4232 20.2199 14.2823L11.7509 5.81184L3.28195 14.2823C3.14112 14.4232 2.95011 14.5023 2.75095 14.5023C2.55178 14.5023 2.36078 14.4232 2.21995 14.2823C2.07912 14.1415 2 13.9505 2 13.7513C2 13.5522 2.07912 13.3612 2.21995 13.2203L11.2199 4.22034Z" fill="black"/>
<path fill-rule="evenodd" clip-rule="evenodd" d="M11.2199 10.2203C11.2896 10.1505 11.3724 10.0951 11.4635 10.0573C11.5546 10.0195 11.6523 10 11.7509 10C11.8496 10 11.9473 10.0195 12.0384 10.0573C12.1295 10.0951 12.2123 10.1505 12.2819 10.2203L21.2819 19.2203C21.4228 19.3612 21.5019 19.5522 21.5019 19.7513C21.5019 19.9505 21.4228 20.1415 21.2819 20.2823C21.1411 20.4232 20.9501 20.5023 20.7509 20.5023C20.5518 20.5023 20.3608 20.4232 20.2199 20.2823L11.7509 11.8118L3.28195 20.2823C3.14112 20.4232 2.95011 20.5023 2.75095 20.5023C2.55178 20.5023 2.36078 20.4232 2.21995 20.2823C2.07912 20.1415 2 19.9505 2 19.7513C2 19.5522 2.07912 19.3612 2.21995 19.2203L11.2199 10.2203Z" fill="black"/>
</svg>
