<svg width="24" height="24" viewBox="0 0 24 24" fill="none" xmlns="http://www.w3.org/2000/svg">
<g clip-path="url(#clip0_525_3400)">
<path d="M1.5 21C1.5 21 0 21 0 19.5C0 18 1.5 13.5 9 13.5C16.5 13.5 18 18 18 19.5C18 21 16.5 21 16.5 21H1.5ZM9 12C10.1935 12 11.3381 11.5259 12.182 10.682C13.0259 9.83807 13.5 8.69347 13.5 7.5C13.5 6.30653 13.0259 5.16193 12.182 4.31802C11.3381 3.47411 10.1935 3 9 3C7.80653 3 6.66193 3.47411 5.81802 4.31802C4.97411 5.16193 4.5 6.30653 4.5 7.5C4.5 8.69347 4.97411 9.83807 5.81802 10.682C6.66193 11.5259 7.80653 12 9 12Z" fill="black"/>
<path fill-rule="evenodd" clip-rule="evenodd" d="M20.75 8C20.9489 8 21.1397 8.07902 21.2803 8.21967C21.421 8.36032 21.5 8.55109 21.5 8.75V11H23.75C23.9489 11 24.1397 11.079 24.2803 11.2197C24.421 11.3603 24.5 11.5511 24.5 11.75C24.5 11.9489 24.421 12.1397 24.2803 12.2803C24.1397 12.421 23.9489 12.5 23.75 12.5H21.5V14.75C21.5 14.9489 21.421 15.1397 21.2803 15.2803C21.1397 15.421 20.9489 15.5 20.75 15.5C20.5511 15.5 20.3603 15.421 20.2197 15.2803C20.079 15.1397 20 14.9489 20 14.75V12.5H17.75C17.5511 12.5 17.3603 12.421 17.2197 12.2803C17.079 12.1397 17 11.9489 17 11.75C17 11.5511 17.079 11.3603 17.2197 11.2197C17.3603 11.079 17.5511 11 17.75 11H20V8.75C20 8.55109 20.079 8.36032 20.2197 8.21967C20.3603 8.07902 20.5511 8 20.75 8Z" fill="black"/>
</g>
<defs>
<clipPath id="clip0_525_3400">
<rect width="24" height="24" fill="white"/>
</clipPath>
</defs>
</svg>
