<svg width="24" height="24" viewBox="0 0 24 24" fill="none" xmlns="http://www.w3.org/2000/svg">
<path fill-rule="evenodd" clip-rule="evenodd" d="M11.5 0C10.465 0 8.73551 0.3975 7.10801 0.84C5.44301 1.29 3.76451 1.8225 2.77751 2.145C2.36485 2.28128 1.99899 2.5312 1.72198 2.86605C1.44497 3.20091 1.26804 3.60711 1.21151 4.038C0.317508 10.7535 2.39201 15.7305 4.90901 19.023C5.97638 20.4314 7.24905 21.6717 8.68451 22.7025C9.26351 23.112 9.80051 23.4255 10.2565 23.64C10.6765 23.838 11.128 24 11.5 24C11.872 24 12.322 23.838 12.7435 23.64C13.2932 23.3728 13.8191 23.0592 14.3155 22.7025C15.751 21.6718 17.0237 20.4315 18.091 19.023C20.608 15.7305 22.6825 10.7535 21.7885 4.038C21.7321 3.6069 21.5552 3.20046 21.2782 2.86535C21.0012 2.53024 20.6353 2.28004 20.2225 2.1435C18.7897 1.67372 17.3458 1.23859 15.892 0.8385C14.2645 0.399 12.535 0 11.5 0ZM10.675 12.753L10.15 7.4925C10.13 7.30326 10.1501 7.11194 10.2088 6.93094C10.2676 6.74995 10.3637 6.58332 10.491 6.44188C10.6183 6.30044 10.7739 6.18734 10.9477 6.10992C11.1216 6.03251 11.3097 5.9925 11.5 5.9925C11.6903 5.9925 11.8785 6.03251 12.0523 6.10992C12.2261 6.18734 12.3817 6.30044 12.509 6.44188C12.6363 6.58332 12.7325 6.74995 12.7912 6.93094C12.8499 7.11194 12.87 7.30326 12.85 7.4925L12.325 12.753C12.3074 12.9597 12.2128 13.1522 12.06 13.2925C11.9073 13.4327 11.7074 13.5106 11.5 13.5106C11.2926 13.5106 11.0927 13.4327 10.94 13.2925C10.7872 13.1522 10.6926 12.9597 10.675 12.753ZM11.503 18C11.1052 18 10.7237 17.842 10.4423 17.5607C10.161 17.2794 10.003 16.8978 10.003 16.5C10.003 16.1022 10.161 15.7206 10.4423 15.4393C10.7237 15.158 11.1052 15 11.503 15C11.9008 15 12.2824 15.158 12.5637 15.4393C12.845 15.7206 13.003 16.1022 13.003 16.5C13.003 16.8978 12.845 17.2794 12.5637 17.5607C12.2824 17.842 11.9008 18 11.503 18Z" fill="black"/>
</svg>
