<svg width="24" height="22" viewBox="0 0 24 22" fill="none" xmlns="http://www.w3.org/2000/svg">
<path d="M9.75 0C9.15326 0 8.58097 0.267444 8.15901 0.743498C7.73705 1.21955 7.5 1.86522 7.5 2.53846V3.38462H2.25C1.65326 3.38462 1.08097 3.65206 0.65901 4.12811C0.237053 4.60417 0 5.24984 0 5.92308L0 19.4615C0 20.1348 0.237053 20.7804 0.65901 21.2565C1.08097 21.7326 1.65326 22 2.25 22H21.75C22.3467 22 22.919 21.7326 23.341 21.2565C23.7629 20.7804 24 20.1348 24 19.4615V5.92308C24 5.24984 23.7629 4.60417 23.341 4.12811C22.919 3.65206 22.3467 3.38462 21.75 3.38462H16.5V2.53846C16.5 1.86522 16.2629 1.21955 15.841 0.743498C15.419 0.267444 14.8467 0 14.25 0H9.75ZM9.75 1.69231H14.25C14.4489 1.69231 14.6397 1.78146 14.7803 1.94014C14.921 2.09883 15 2.31405 15 2.53846V3.38462H9V2.53846C9 2.31405 9.07902 2.09883 9.21967 1.94014C9.36032 1.78146 9.55109 1.69231 9.75 1.69231ZM12.579 13.3929L22.5 10.4094V19.4615C22.5 19.686 22.421 19.9012 22.2803 20.0599C22.1397 20.2185 21.9489 20.3077 21.75 20.3077H2.25C2.05109 20.3077 1.86032 20.2185 1.71967 20.0599C1.57902 19.9012 1.5 19.686 1.5 19.4615V10.4077L11.421 13.3929C11.8004 13.5069 12.1996 13.5069 12.579 13.3929ZM2.25 5.07692H21.75C21.9489 5.07692 22.1397 5.16607 22.2803 5.32476C22.421 5.48344 22.5 5.69866 22.5 5.92308V8.65785L12.1935 11.7582C12.0667 11.7963 11.9333 11.7963 11.8065 11.7582L1.5 8.65785V5.92308C1.5 5.69866 1.57902 5.48344 1.71967 5.32476C1.86032 5.16607 2.05109 5.07692 2.25 5.07692Z" fill="black"/>
</svg>
