<svg width="54" height="49" viewBox="0 0 54 49" fill="none" xmlns="http://www.w3.org/2000/svg">
<g clip-path="url(#clip0_494_3241)">
<path d="M47.924 14.141H49.4184C48.4037 11.8301 47.1861 9.78282 45.7286 8.04814C45.4703 7.73553 44.9906 7.71101 44.7016 8.01136C44.4495 8.2688 44.4618 8.68562 44.7016 8.96758C45.95 10.4571 47.0262 12.1856 47.9302 14.141H47.924Z" fill="white"/>
<path d="M9.15674 14.141H12.0225C12.6067 13.7916 13.1971 13.43 13.7936 13.0622C16.3703 11.4624 19.0392 9.81351 22.1448 8.96762C22.5138 8.86955 22.729 8.48951 22.6306 8.12174C22.5322 7.75396 22.1509 7.53943 21.782 7.6375C18.4796 8.53242 15.6016 10.3161 13.0679 11.8914C11.7334 12.7189 10.4359 13.5219 9.16289 14.141H9.15674Z" fill="white"/>
<path d="M36.3811 6.06222C36.049 5.87834 35.6247 6.00093 35.4402 6.33805C35.2557 6.66905 35.3787 7.092 35.7169 7.27588C38.4474 8.76538 41.0118 11.0149 43.3302 13.9571C43.3978 14.043 43.4778 14.1043 43.57 14.1472H44.1604C44.2096 14.1226 44.2588 14.1043 44.3018 14.0736C44.6032 13.8407 44.6524 13.4055 44.4187 13.1051C41.9834 10.0158 39.2776 7.64366 36.3811 6.06835V6.06222Z" fill="white"/>
<path d="M33.9521 13.6506C31.4123 12.0692 28.5219 11.2723 25.3733 11.2723C22.483 11.2723 19.8878 11.9834 17.2066 13.5035C16.9668 13.6384 16.8499 13.8958 16.8622 14.1471H18.9469C21.044 13.1296 23.1102 12.6515 25.3733 12.6515C27.7655 12.6515 29.9794 13.1603 31.9903 14.1471H34.2657C34.2411 13.951 34.1366 13.7671 33.9582 13.6506H33.9521Z" fill="white"/>
<path d="M32.2054 4.35812C26.9967 2.91153 21.3267 3.70838 15.3493 6.72414C15.011 6.89577 14.8696 7.31258 15.0418 7.64971C15.1648 7.88876 15.4046 8.02975 15.6568 8.02975C15.7613 8.02975 15.8658 8.00523 15.9704 7.95619C21.6342 5.0998 26.9659 4.3336 31.8303 5.68824C32.1993 5.79244 32.5806 5.57791 32.679 5.21013C32.7835 4.84235 32.5683 4.46232 32.1993 4.36425L32.2054 4.35812Z" fill="white"/>
<path d="M25.1027 7.07971C24.7215 7.10423 24.4324 7.43522 24.457 7.81526C24.4816 8.19529 24.8076 8.48338 25.195 8.45887C30.8158 8.08496 35.3234 10.0035 38.6934 14.1471H40.4092C36.6887 9.08408 31.5107 6.65063 25.1027 7.07971Z" fill="white"/>
<path d="M24.5247 1.51401C25.773 1.37303 27.0399 1.34238 28.3005 1.42819C33.4293 1.77758 37.7525 3.19352 41.141 5.64536C41.264 5.73117 41.4054 5.77408 41.5469 5.77408C41.7621 5.77408 41.9712 5.676 42.1065 5.49212C42.3279 5.18564 42.2602 4.75043 41.9528 4.52977C38.3491 1.92469 33.786 0.416809 28.3928 0.0490329C27.046 -0.042911 25.6931 -0.012263 24.3648 0.140977C23.9835 0.183884 23.7129 0.527141 23.756 0.907176C23.799 1.28721 24.1434 1.55691 24.5247 1.51401Z" fill="white"/>
<path d="M5.47945 12.9395C5.63934 12.9518 5.79923 12.9579 5.95913 12.9579C7.08451 12.9579 8.32674 12.6698 9.64891 11.9159C9.67351 11.9036 9.69196 11.8853 9.71656 11.873C10.7066 11.1374 11.6967 10.4509 12.6745 9.83797C12.9574 9.66021 13.0927 9.3047 12.9697 8.99822C12.8037 8.58141 12.3117 8.4343 11.955 8.66109C10.9588 9.29244 9.93794 9.99121 8.9294 10.7452C7.71177 11.4317 6.58024 11.6339 5.584 11.5726C5.31956 11.5543 5.07358 11.6891 4.94443 11.9159C4.94443 11.9159 4.94443 11.922 4.93829 11.9282C4.69845 12.3634 4.98748 12.9028 5.4856 12.9395H5.47945Z" fill="white"/>
<path d="M41.7435 34.859C41.7066 35.2329 41.6697 35.613 41.6144 35.9869C41.5591 36.3608 41.8173 36.7163 42.1925 36.7715C42.2294 36.7715 42.2601 36.7776 42.297 36.7776C42.6352 36.7776 42.9304 36.5324 42.9796 36.1892C43.0473 35.7417 43.0903 35.3004 43.1334 34.8529H41.7435V34.859Z" fill="white"/>
<path d="M41.5595 39.6463C41.1782 39.4746 40.7477 39.6647 40.6124 40.0508C40.2557 41.099 39.8253 42.1165 39.3333 43.0727C39.0012 43.7224 38.6384 44.3599 38.2632 44.9729C37.9004 45.5736 38.5646 46.2662 39.1795 45.9291L39.2041 45.9168C39.3087 45.8555 39.4009 45.7697 39.4624 45.6717C39.8437 45.0403 40.2188 44.3844 40.5632 43.7041C41.0798 42.6988 41.5349 41.6323 41.91 40.5351C42.0268 40.1979 41.8854 39.8056 41.5533 39.6524L41.5595 39.6463Z" fill="white"/>
<path d="M44.6772 34.859C44.4681 37.0534 44.0008 39.2355 43.2505 41.3993C43.0168 42.0735 43.847 42.613 44.3697 42.1226C44.3759 42.1165 44.382 42.1103 44.3943 42.1042C44.4743 42.0245 44.5358 41.9326 44.5727 41.8222C45.3721 39.5175 45.8579 37.1944 46.067 34.859H44.6772Z" fill="white"/>
<path d="M47.7643 34.859C47.6659 35.7723 47.5307 36.6672 47.3523 37.5315C47.3523 37.5315 47.3523 37.5315 47.3523 37.5376C47.2847 37.9054 47.7951 38.0954 48.0042 37.7828C48.3363 37.2802 48.656 36.7653 48.9512 36.2382C48.9758 36.1953 48.9881 36.1524 48.9943 36.1094C49.0558 35.6988 49.105 35.282 49.148 34.859H47.7582H47.7643Z" fill="white"/>
<path d="M38.5275 34.859C38.1463 38.5061 36.8917 41.7671 34.6287 45.0893C34.4134 45.4019 34.4995 45.831 34.8132 46.0455C34.93 46.1252 35.0653 46.162 35.2006 46.162C35.422 46.162 35.6372 46.0578 35.7725 45.8616C38.2016 42.2942 39.5361 38.7881 39.9174 34.859H38.5275Z" fill="white"/>
<path d="M7.54583 9.16994C8.51748 9.10251 9.74126 8.27501 11.4386 7.12878C13.5171 5.7251 16.3583 3.80654 19.8513 2.59288C20.2079 2.47029 20.4355 2.09638 20.3309 1.74086C20.2202 1.36083 19.8144 1.15242 19.4392 1.28114C15.7556 2.5561 12.8099 4.54209 10.6637 5.9948C10.0364 6.41775 9.44607 6.81617 8.9295 7.12878C8.30224 7.50881 7.73032 7.97466 7.23835 8.50794C6.99852 8.76538 7.18916 9.19445 7.53968 9.16994H7.54583Z" fill="white"/>
<path d="M8.03549 18.4445H9.23249V23.2535H8.03549V21.3355H6.06849V23.2535H4.87149V18.4445H6.06849V20.2645H8.03549V18.4445ZM13.9153 19.5155H11.3253V20.2645H13.6773V21.3355H11.3253V22.1825H13.9153V23.2535H10.1283V18.4445H13.9153V19.5155ZM18.0627 23.2535L17.7827 22.5535H15.8787L15.5987 23.2535H14.2547L16.1587 18.4445H17.5027L19.4067 23.2535H18.0627ZM16.2497 21.6155H17.4117L16.8307 20.1385L16.2497 21.6155ZM24.1037 23.2535H22.7457L21.6887 21.7485H21.1007V23.2535H19.9037V18.4445H22.1367C23.1937 18.4445 23.9637 19.1235 23.9637 20.0965C23.9637 20.7965 23.5647 21.3495 22.9417 21.6015L24.1037 23.2535ZM21.1007 19.5365V20.6565H22.0247C22.4377 20.6565 22.7317 20.4325 22.7317 20.0965C22.7317 19.7605 22.4377 19.5365 22.0247 19.5365H21.1007ZM25.9271 23.2535V19.5155H24.4641V18.4445H28.5801V19.5155H27.1241V23.2535H25.9271ZM30.3903 22.1825H32.7073V23.2535H29.2003V18.4445H30.3903V22.1825ZM36.7453 23.2535L36.4653 22.5535H34.5613L34.2813 23.2535H32.9373L34.8413 18.4445H36.1853L38.0893 23.2535H36.7453ZM34.9323 21.6155H36.0943L35.5133 20.1385L34.9323 21.6155ZM38.6073 23.2535V18.4445H39.8043L41.8973 21.2865V18.4445H43.0943V23.2535H41.8973L39.8043 20.4115V23.2535H38.6073ZM44.0351 23.2535V18.4445H45.7921C47.4441 18.4445 48.6061 19.4385 48.6061 20.8455C48.6061 22.2525 47.4441 23.2535 45.7921 23.2535H44.0351ZM45.2321 22.1685H45.9741C46.7931 22.1685 47.3811 21.6155 47.3811 20.8455C47.3811 20.0755 46.7931 19.5295 45.9741 19.5295H45.2321V22.1685Z" fill="white"/>
<path d="M3.87837 30.9291C2.47837 30.9291 1.29537 29.7881 1.29537 28.4371C1.29537 27.0861 2.47837 25.9521 3.87837 25.9521C4.62737 25.9521 5.31337 26.2741 5.78937 26.7781L4.91437 27.5551C4.66237 27.2401 4.28437 27.0371 3.87837 27.0371C3.14337 27.0371 2.52037 27.6811 2.52037 28.4371C2.52037 29.2001 3.14337 29.8441 3.87837 29.8441C4.29137 29.8441 4.66237 29.6411 4.92137 29.3261L5.78937 30.0961C5.31337 30.6071 4.62737 30.9291 3.87837 30.9291ZM7.79258 30.8451V29.1861L5.93058 26.0361H7.30958L8.39458 28.0661L9.52858 26.0361H10.8586L8.99658 29.1861V30.8451H7.79258ZM11.3148 30.8451V26.0361H13.8278C14.7168 26.0361 15.3328 26.5471 15.3328 27.2471C15.3328 27.7231 15.0878 28.1081 14.6678 28.3181C15.2208 28.5631 15.5498 29.0181 15.5498 29.5431C15.5498 30.3131 14.8708 30.8451 13.9188 30.8451H11.3148ZM12.5048 27.9401H13.5338C13.8628 27.9401 14.1008 27.7511 14.1008 27.4921C14.1008 27.2331 13.8628 27.0511 13.5338 27.0511H12.5048V27.9401ZM12.5048 29.8301H13.7158C14.0658 29.8301 14.3178 29.6271 14.3178 29.3471C14.3178 29.0671 14.0658 28.8641 13.7158 28.8641H12.5048V29.8301ZM20.0163 27.1071H17.4263V27.8561H19.7783V28.9271H17.4263V29.7741H20.0163V30.8451H16.2293V26.0361H20.0163V27.1071ZM24.9547 30.8451H23.5967L22.5397 29.3401H21.9517V30.8451H20.7547V26.0361H22.9877C24.0447 26.0361 24.8147 26.7151 24.8147 27.6881C24.8147 28.3881 24.4157 28.9411 23.7927 29.1931L24.9547 30.8451ZM21.9517 27.1281V28.2481H22.8757C23.2887 28.2481 23.5827 28.0241 23.5827 27.6881C23.5827 27.3521 23.2887 27.1281 22.8757 27.1281H21.9517ZM31.7086 30.8451H30.3506L29.2936 29.3401H28.7056V30.8451H27.5086V26.0361H29.7416C30.7986 26.0361 31.5686 26.7151 31.5686 27.6881C31.5686 28.3881 31.1696 28.9411 30.5466 29.1931L31.7086 30.8451ZM28.7056 27.1281V28.2481H29.6296C30.0426 28.2481 30.3366 28.0241 30.3366 27.6881C30.3366 27.3521 30.0426 27.1281 29.6296 27.1281H28.7056ZM35.737 30.8451L35.457 30.1451H33.553L33.273 30.8451H31.929L33.833 26.0361H35.177L37.081 30.8451H35.737ZM33.924 29.2071H35.086L34.505 27.7301L33.924 29.2071ZM37.599 30.8451V26.0361H38.796L40.889 28.8781V26.0361H42.086V30.8451H40.889L38.796 28.0031V30.8451H37.599ZM45.2107 28.9901V28.0871H47.4017V30.0961C46.9117 30.6211 46.1767 30.9291 45.4347 30.9291C44.0137 30.9291 42.8237 29.7881 42.8237 28.4371C42.8237 27.0861 44.0137 25.9521 45.4347 25.9521C46.1767 25.9521 46.9117 26.2601 47.4017 26.7781L46.5267 27.5551C46.2677 27.2331 45.8477 27.0371 45.4347 27.0371C44.6857 27.0371 44.0487 27.6811 44.0487 28.4371C44.0487 29.2001 44.6857 29.8441 45.4347 29.8441C45.7147 29.8441 46.0017 29.7531 46.2397 29.5921V28.9901H45.2107ZM51.988 27.1071H49.398V27.8561H51.75V28.9271H49.398V29.7741H51.988V30.8451H48.201V26.0361H51.988V27.1071Z" fill="white"/>
<path d="M13.4248 39.8118C13.3817 39.4072 13.0066 39.1314 12.613 39.205C11.3154 39.444 9.88872 39.3214 8.30827 38.831C7.6564 38.6288 7.13368 39.3888 7.57031 39.9099C7.57031 39.916 7.58261 39.9221 7.58876 39.9282C7.67485 40.0324 7.7917 40.1121 7.92084 40.1489C9.10772 40.5106 10.227 40.6944 11.2908 40.6944C11.8074 40.6944 12.3117 40.6515 12.8037 40.5657C13.1726 40.4983 13.474 40.1796 13.4371 39.8057L13.4248 39.8118Z" fill="white"/>
<path d="M15.5527 34.5831H13.0621C11.1803 35.5393 8.87416 35.7784 5.77474 34.5831H4.7662C4.54481 34.7731 4.44027 35.098 4.60016 35.4045C4.60016 35.4106 4.60631 35.4168 4.61246 35.4229C4.68626 35.57 4.8154 35.6803 4.96299 35.7416C6.74024 36.4649 8.30225 36.7775 9.69206 36.7775C12.0966 36.7775 13.9722 35.852 15.5588 34.5831H15.5527Z" fill="white"/>
<path d="M23.1718 35.7478L23.2271 35.6374C23.387 35.3126 23.3009 34.8896 22.9873 34.6996C22.6368 34.4851 22.1817 34.6199 22.0033 34.9816L21.9234 35.1348C20.6996 37.6112 18.3505 42.3555 12.33 42.8765C11.7027 42.9316 11.4813 43.7346 11.9856 44.1085C11.9856 44.1085 11.9979 44.1147 12.004 44.1208C12.1393 44.2189 12.3054 44.2679 12.4714 44.2556C19.2422 43.6733 21.9173 38.2731 23.1656 35.7478H23.1718Z" fill="white"/>
<path d="M28.1775 44.176C28.3005 44.268 28.4481 44.3109 28.5895 44.3109C28.7925 44.3109 28.9954 44.219 29.1307 44.0535C31.5229 41.05 32.9681 37.8442 33.4293 34.5894H32.0272C31.566 37.5254 30.2438 40.4247 28.0791 43.1524C27.8331 43.4589 27.8577 43.9431 28.1714 44.1822L28.1775 44.176Z" fill="white"/>
<path d="M15.5834 38.6777C15.8047 39.0271 16.2721 39.1006 16.5919 38.8555C18.1416 37.6663 19.3654 36.0358 20.4416 34.5831H18.7135C17.8341 35.7355 16.9055 36.8572 15.7924 37.7276C15.5034 37.9544 15.3866 38.3651 15.5834 38.6777Z" fill="white"/>
<path d="M34.9914 34.5831C34.7639 36.1217 34.3703 37.6479 33.7738 39.1558C33.6447 39.4807 33.7431 39.8668 34.0444 40.0446C34.1551 40.112 34.2781 40.1427 34.3949 40.1427C34.6717 40.1427 34.9299 39.9772 35.0406 39.7075C35.7109 38.0218 36.1537 36.3055 36.3874 34.5831H34.9914Z" fill="white"/>
<path d="M32.4273 41.9877C31.2773 44.035 29.7891 46.0087 28.0118 47.8599C27.5937 48.2951 27.9196 49.0245 28.5284 49.0061C28.5346 49.0061 28.5407 49.0061 28.553 49.0061C28.7314 49.0061 28.9035 48.9264 29.0265 48.7977C30.8653 46.8791 32.415 44.8318 33.6142 42.7049C33.7925 42.3861 33.7249 41.9632 33.4174 41.7609C33.0792 41.5341 32.6241 41.6445 32.4273 41.9938V41.9877Z" fill="white"/>
<path d="M26.7878 34.5831H25.3918C24.6046 38.5306 21.6528 43.1952 16.1673 45.3651C15.62 45.5796 15.5954 46.352 16.1304 46.6094C16.1304 46.6094 16.1427 46.6094 16.1489 46.6155C16.3211 46.6952 16.5179 46.7075 16.6962 46.6339C22.772 44.225 25.9883 38.9719 26.7878 34.5831Z" fill="white"/>
<path d="M25.515 45.9413C24.8877 46.5297 24.2174 47.1059 23.5163 47.6576C23.0428 48.0315 23.2519 48.7915 23.8546 48.8651C23.8607 48.8651 23.8669 48.8651 23.873 48.8651C24.0575 48.8896 24.242 48.8344 24.3834 48.7241C25.1275 48.1418 25.8347 47.535 26.4989 46.9036C26.7941 46.6278 26.7879 46.1558 26.4805 45.8861C26.2037 45.6409 25.7794 45.69 25.515 45.9413Z" fill="white"/>
<path d="M30.0534 35.2635C30.1088 35.0183 30.0288 34.7609 29.8628 34.5831H28.9157C28.8235 34.6751 28.7497 34.7793 28.7189 34.9141C27.7842 39.0026 24.7647 43.7959 19.8573 46.8485C19.353 47.1611 19.4576 47.915 20.0295 48.0805C20.0295 48.0805 20.0418 48.0805 20.048 48.0805C20.2324 48.1357 20.4354 48.105 20.6014 48.0008C25.8225 44.7399 29.0449 39.6278 30.0596 35.2513L30.0534 35.2635Z" fill="white"/>
</g>
<defs>
<clipPath id="clip0_494_3241">
<rect width="54" height="49" fill="white"/>
</clipPath>
</defs>
</svg>
