<svg width="24" height="24" viewBox="0 0 24 24" fill="none" xmlns="http://www.w3.org/2000/svg">
<path d="M17 3.5C18.1935 3.5 19.3381 3.97411 20.182 4.81802C21.0259 5.66193 21.5 6.80653 21.5 8V17C21.5 18.1935 21.0259 19.3381 20.182 20.182C19.3381 21.0259 18.1935 21.5 17 21.5H8C6.80653 21.5 5.66193 21.0259 4.81802 20.182C3.97411 19.3381 3.5 18.1935 3.5 17V8C3.5 6.80653 3.97411 5.66193 4.81802 4.81802C5.66193 3.97411 6.80653 3.5 8 3.5H17ZM8 2C6.4087 2 4.88258 2.63214 3.75736 3.75736C2.63214 4.88258 2 6.4087 2 8V17C2 18.5913 2.63214 20.1174 3.75736 21.2426C4.88258 22.3679 6.4087 23 8 23H17C18.5913 23 20.1174 22.3679 21.2426 21.2426C22.3679 20.1174 23 18.5913 23 17V8C23 6.4087 22.3679 4.88258 21.2426 3.75736C20.1174 2.63214 18.5913 2 17 2H8Z" fill="black"/>
</svg>
