<svg width="34" height="34" viewBox="0 0 34 34" fill="none" xmlns="http://www.w3.org/2000/svg">
<circle cx="17" cy="17" r="17" fill="white" fill-opacity="0.13"/>
<path d="M7 18.02V20C7 25 9 27 14 27H20C25 27 27 25 27 20V14C27 9 25 7 20 7H14C9 7 7 9 7 14" stroke="white" stroke-width="1.5" stroke-linecap="round" stroke-linejoin="round"/>
<path d="M23.3792 20.2712V12.5812C23.3792 11.8112 22.7591 11.2512 21.9991 11.3112H21.9592C20.6192 11.4212 18.5892 12.1112 17.4492 12.8212L17.3392 12.8912C17.1592 13.0012 16.8491 13.0012 16.6591 12.8912L16.4991 12.7912C15.3691 12.0812 13.3392 11.4112 11.9992 11.3012C11.2392 11.2412 10.6191 11.8112 10.6191 12.5712V20.2712C10.6191 20.8812 11.1191 21.4612 11.7291 21.5312L11.9091 21.5612C13.2891 21.7412 15.4292 22.4512 16.6492 23.1212L16.6791 23.1312C16.8491 23.2312 17.1291 23.2312 17.2891 23.1312C18.5091 22.4512 20.6591 21.7512 22.0491 21.5612L22.2592 21.5312C22.8792 21.4612 23.3792 20.8912 23.3792 20.2712Z" stroke="white" stroke-width="1.5" stroke-linecap="round" stroke-linejoin="round"/>
<path d="M17 13.1016V22.6616" stroke="white" stroke-width="1.5" stroke-linecap="round" stroke-linejoin="round"/>
</svg>
