<svg width="24" height="24" viewBox="0 0 24 24" fill="none" xmlns="http://www.w3.org/2000/svg">
<path d="M3.671 12.0945V11.85C5.1785 11.697 5.9165 10.9275 5.9165 9.45V6.7545C5.9165 5.1135 6.5015 4.4475 7.9475 4.4475H8.357V3H7.793C5.375 3 4.235 4.1385 4.235 6.528V8.814C4.235 10.455 3.671 10.998 2 10.998V12.9465C3.671 12.9465 4.235 13.4895 4.235 15.1305V17.4165C4.235 19.806 5.3735 20.9445 7.793 20.9445H8.357V19.4985H7.9475C6.5015 19.4985 5.9165 18.8325 5.9165 17.1915V14.4945C5.9165 13.0185 5.1785 12.249 3.671 12.0945ZM21.329 11.85V12.0945C19.8215 12.249 19.0835 13.0185 19.0835 14.4945V17.1915C19.0835 18.8325 18.4985 19.4985 17.0525 19.4985H16.643V20.9445H17.207C19.6265 20.9445 20.765 19.806 20.765 17.4165V15.1305C20.765 13.4895 21.329 12.9465 23 12.9465V10.998C21.329 10.998 20.765 10.455 20.765 8.814V6.528C20.765 4.1385 19.625 3 17.207 3H16.643V4.446H17.0525C18.4985 4.446 19.0835 5.112 19.0835 6.753V9.45C19.0835 10.926 19.8215 11.6955 21.329 11.85Z" fill="black"/>
</svg>
