<svg width="24" height="24" viewBox="0 0 24 24" fill="none" xmlns="http://www.w3.org/2000/svg">
<path d="M17.1347 8.28694C17.3421 8.10086 17.618 7.99799 17.9043 8.00003C18.1906 8.00207 18.4649 8.10887 18.6692 8.29788C18.8736 8.4869 18.992 8.74335 18.9996 9.01312C19.0072 9.28289 18.9033 9.54488 18.7098 9.74381L12.8363 16.6674C12.7353 16.7699 12.6134 16.8522 12.4779 16.9093C12.3424 16.9665 12.196 16.9972 12.0476 16.9998C11.8992 17.0024 11.7518 16.9768 11.6141 16.9244C11.4765 16.8721 11.3514 16.7941 11.2465 16.6952L7.35139 13.0238C7.24292 12.9286 7.15592 12.8137 7.09558 12.686C7.03523 12.5584 7.00279 12.4206 7.00017 12.2809C6.99756 12.1412 7.02483 12.0024 7.08035 11.8728C7.13588 11.7432 7.21853 11.6255 7.32337 11.5267C7.42821 11.4279 7.55309 11.35 7.69056 11.2976C7.82803 11.2453 7.97528 11.2196 8.12352 11.2221C8.27176 11.2245 8.41796 11.2551 8.55338 11.312C8.68881 11.3689 8.8107 11.4509 8.91177 11.5531L11.9943 14.4571L17.1067 8.31746C17.1159 8.30678 17.1258 8.29659 17.1362 8.28694H17.1347Z" fill="black"/>
<path d="M17 3.5C18.1935 3.5 19.3381 3.97411 20.182 4.81802C21.0259 5.66193 21.5 6.80653 21.5 8V17C21.5 18.1935 21.0259 19.3381 20.182 20.182C19.3381 21.0259 18.1935 21.5 17 21.5H8C6.80653 21.5 5.66193 21.0259 4.81802 20.182C3.97411 19.3381 3.5 18.1935 3.5 17V8C3.5 6.80653 3.97411 5.66193 4.81802 4.81802C5.66193 3.97411 6.80653 3.5 8 3.5H17ZM8 2C6.4087 2 4.88258 2.63214 3.75736 3.75736C2.63214 4.88258 2 6.4087 2 8V17C2 18.5913 2.63214 20.1174 3.75736 21.2426C4.88258 22.3679 6.4087 23 8 23H17C18.5913 23 20.1174 22.3679 21.2426 21.2426C22.3679 20.1174 23 18.5913 23 17V8C23 6.4087 22.3679 4.88258 21.2426 3.75736C20.1174 2.63214 18.5913 2 17 2H8Z" fill="black"/>
</svg>
