<svg width="16" height="16" viewBox="0 0 16 16" fill="none" xmlns="http://www.w3.org/2000/svg">
<g clip-path="url(#clip0_170_2411)">
<path d="M8 15C6.14348 15 4.36301 14.2625 3.05025 12.9497C1.7375 11.637 1 9.85652 1 8C1 6.14348 1.7375 4.36301 3.05025 3.05025C4.36301 1.7375 6.14348 1 8 1C9.85652 1 11.637 1.7375 12.9497 3.05025C14.2625 4.36301 15 6.14348 15 8C15 9.85652 14.2625 11.637 12.9497 12.9497C11.637 14.2625 9.85652 15 8 15ZM8 16C10.1217 16 12.1566 15.1571 13.6569 13.6569C15.1571 12.1566 16 10.1217 16 8C16 5.87827 15.1571 3.84344 13.6569 2.34315C12.1566 0.842855 10.1217 0 8 0C5.87827 0 3.84344 0.842855 2.34315 2.34315C0.842855 3.84344 0 5.87827 0 8C0 10.1217 0.842855 12.1566 2.34315 13.6569C3.84344 15.1571 5.87827 16 8 16Z" fill="#6DB657"/>
<path d="M10.8473 4.88398C10.8402 4.89088 10.8335 4.89823 10.8273 4.90598L7.35429 9.33098L5.26129 7.23698C5.11912 7.1045 4.93107 7.03237 4.73677 7.0358C4.54247 7.03923 4.35708 7.11794 4.21967 7.25536C4.08226 7.39277 4.00355 7.57815 4.00012 7.77245C3.99669 7.96676 4.06881 8.1548 4.20129 8.29698L6.84729 10.944C6.91857 11.0151 7.00346 11.0712 7.09688 11.1088C7.19029 11.1465 7.29034 11.1649 7.39104 11.163C7.49174 11.1612 7.59103 11.139 7.68299 11.098C7.77495 11.0569 7.85769 10.9977 7.92629 10.924L11.9183 5.93398C12.0542 5.79131 12.1285 5.60087 12.1252 5.40384C12.1218 5.20682 12.0411 5.01903 11.9003 4.88107C11.7596 4.74312 11.5703 4.66609 11.3732 4.66663C11.1762 4.66717 10.9872 4.74525 10.8473 4.88398Z" fill="#6DB657"/>
</g>
<defs>
<clipPath id="clip0_170_2411">
<rect width="16" height="16" fill="white"/>
</clipPath>
</defs>
</svg>
