<svg width="25" height="24" viewBox="0 0 25 24" fill="none" xmlns="http://www.w3.org/2000/svg">
<path d="M6.83887 16.6715C7.06087 19.172 9.10837 20.9465 12.2254 21.176V23H13.7899V21.176C17.1949 20.9075 19.3069 19.019 19.3069 16.226C19.3069 13.841 17.8864 12.461 14.8729 11.684L13.7899 11.4035V5.7005C15.4729 5.8655 16.6084 6.7715 16.8949 8.1245H19.0999C18.8509 5.7245 16.7899 4.0025 13.7899 3.812V2H12.2254V3.8495C9.31687 4.1945 7.32037 6.0575 7.32037 8.5835C7.32037 10.7645 8.76937 12.308 11.3119 12.959L12.2269 13.202V19.2485C10.5034 18.9935 9.31687 18.0485 9.03037 16.6715H6.83887ZM11.9254 10.9175C10.3609 10.523 9.52537 9.68 9.52537 8.4935C9.52537 7.0775 10.5814 6.032 12.2254 5.7515V10.994L11.9254 10.919V10.9175ZM14.3119 13.7255C16.2424 14.21 17.0899 15.014 17.0899 16.379C17.0899 18.0245 15.8509 19.121 13.7899 19.2875V13.595L14.3119 13.724V13.7255Z" fill="black"/>
</svg>
