<svg width="25" height="24" viewBox="0 0 25 24" fill="none" xmlns="http://www.w3.org/2000/svg">
<g clip-path="url(#clip0_525_3256)">
<path d="M12.7079 7C12.0685 7 11.4353 7.12594 10.8446 7.37063C10.2538 7.61532 9.71709 7.97397 9.26496 8.4261C8.81284 8.87823 8.45419 9.41498 8.2095 10.0057C7.96481 10.5964 7.83887 11.2296 7.83887 11.869C7.83887 12.5084 7.96481 13.1416 8.2095 13.7323C8.45419 14.323 8.81284 14.8598 9.26496 15.3119C9.71709 15.764 10.2538 16.1227 10.8446 16.3674C11.4353 16.6121 12.0685 16.738 12.7079 16.738C13.9992 16.738 15.2377 16.225 16.1508 15.3119C17.0639 14.3988 17.5769 13.1603 17.5769 11.869C17.5769 10.5777 17.0639 9.33921 16.1508 8.4261C15.2377 7.51298 13.9992 7 12.7079 7ZM9.33887 11.869C9.33887 10.9755 9.69381 10.1186 10.3256 9.48676C10.9574 8.85495 11.8144 8.5 12.7079 8.5C13.6014 8.5 14.4583 8.85495 15.0901 9.48676C15.7219 10.1186 16.0769 10.9755 16.0769 11.869C16.0769 12.7625 15.7219 13.6194 15.0901 14.2512C14.4583 14.8831 13.6014 15.238 12.7079 15.238C11.8144 15.238 10.9574 14.8831 10.3256 14.2512C9.69381 13.6194 9.33887 12.7625 9.33887 11.869Z" fill="black"/>
<path d="M15.5326 2.01424C14.7421 -0.670762 10.9351 -0.670762 10.1446 2.01424L10.0036 2.49274C9.9484 2.68017 9.85195 2.85287 9.72133 2.99818C9.59071 3.14349 9.42922 3.25772 9.24872 3.33252C9.06821 3.40731 8.87325 3.44076 8.67814 3.43041C8.48302 3.42007 8.29269 3.3662 8.12111 3.27274L7.68311 3.03274C5.22311 1.69474 2.53361 4.38574 3.87311 6.84424L4.11161 7.28224C4.20506 7.45383 4.25894 7.64415 4.26928 7.83927C4.27963 8.03439 4.24618 8.22934 4.17138 8.40985C4.09659 8.59036 3.98235 8.75184 3.83704 8.88246C3.69173 9.01308 3.51903 9.10953 3.33161 9.16474L2.85311 9.30574C0.168105 10.0962 0.168105 13.9032 2.85311 14.6937L3.33161 14.8347C3.51903 14.8899 3.69173 14.9864 3.83704 15.117C3.98235 15.2476 4.09659 15.4091 4.17138 15.5896C4.24618 15.7701 4.27963 15.9651 4.26928 16.1602C4.25894 16.3553 4.20506 16.5457 4.11161 16.7172L3.87161 17.1552C2.53361 19.6152 5.22311 22.3062 7.68311 20.9652L8.12111 20.7267C8.29269 20.6333 8.48302 20.5794 8.67814 20.5691C8.87325 20.5587 9.06821 20.5922 9.24872 20.667C9.42922 20.7418 9.59071 20.856 9.72133 21.0013C9.85195 21.1466 9.9484 21.3193 10.0036 21.5067L10.1446 21.9852C10.9351 24.6702 14.7421 24.6702 15.5326 21.9852L15.6736 21.5067C15.7288 21.3193 15.8253 21.1466 15.9559 21.0013C16.0865 20.856 16.248 20.7418 16.4285 20.667C16.609 20.5922 16.804 20.5587 16.9991 20.5691C17.1942 20.5794 17.3845 20.6333 17.5561 20.7267L17.9941 20.9667C20.4541 22.3062 23.1451 19.6137 21.8041 17.1552L21.5656 16.7172C21.4721 16.5457 21.4183 16.3553 21.4079 16.1602C21.3976 15.9651 21.431 15.7701 21.5058 15.5896C21.5806 15.4091 21.6949 15.2476 21.8402 15.117C21.9855 14.9864 22.1582 14.8899 22.3456 14.8347L22.8241 14.6937C25.5091 13.9032 25.5091 10.0962 22.8241 9.30574L22.3456 9.16474C22.1582 9.10953 21.9855 9.01308 21.8402 8.88246C21.6949 8.75184 21.5806 8.59036 21.5058 8.40985C21.431 8.22934 21.3976 8.03439 21.4079 7.83927C21.4183 7.64415 21.4721 7.45383 21.5656 7.28224L21.8056 6.84424C23.1451 4.38424 20.4526 1.69474 17.9941 3.03424L17.5561 3.27274C17.3845 3.3662 17.1942 3.42007 16.9991 3.43041C16.804 3.44076 16.609 3.40731 16.4285 3.33252C16.248 3.25772 16.0865 3.14349 15.9559 2.99818C15.8253 2.85287 15.7288 2.68017 15.6736 2.49274L15.5326 2.01424ZM11.5831 2.43874C11.9521 1.18624 13.7251 1.18624 14.0941 2.43874L14.2351 2.91724C14.3536 3.31937 14.5607 3.68987 14.841 4.00159C15.1213 4.3133 15.4679 4.55833 15.8552 4.71871C16.2426 4.87908 16.6609 4.95074 17.0795 4.92842C17.4982 4.90611 17.9065 4.79038 18.2746 4.58974L18.7111 4.34974C19.8571 3.72724 21.1111 4.97974 20.4871 6.12724L20.2486 6.56524C20.0483 6.93338 19.9328 7.34168 19.9107 7.76022C19.8887 8.17876 19.9605 8.59694 20.121 8.98411C20.2815 9.37129 20.5266 9.71764 20.8384 9.9978C21.1501 10.278 21.5206 10.4848 21.9226 10.6032L22.3996 10.7442C23.6521 11.1132 23.6521 12.8862 22.3996 13.2552L21.9211 13.3962C21.519 13.5148 21.1485 13.7218 20.8368 14.0021C20.525 14.2825 20.28 14.629 20.1196 15.0164C19.9593 15.4037 19.8876 15.822 19.9099 16.2407C19.9322 16.6593 20.048 17.0676 20.2486 17.4357L20.4886 17.8722C21.1111 19.0182 19.8586 20.2722 18.7111 19.6482L18.2746 19.4097C17.9064 19.2091 17.498 19.0934 17.0792 19.0712C16.6605 19.049 16.2421 19.1208 15.8548 19.2813C15.4674 19.4418 15.1209 19.687 14.8406 19.9989C14.5604 20.3108 14.3535 20.6815 14.2351 21.0837L14.0941 21.5607C13.7251 22.8132 11.9521 22.8132 11.5831 21.5607L11.4421 21.0822C11.3235 20.6803 11.1165 20.31 10.8363 19.9985C10.5561 19.6869 10.2097 19.442 9.82254 19.2816C9.43539 19.1213 9.01727 19.0495 8.59881 19.0717C8.18035 19.0939 7.77215 19.2094 7.40411 19.4097L6.96611 19.6497C5.82011 20.2722 4.56611 19.0197 5.19011 17.8722L5.42861 17.4357C5.62953 17.0676 5.74548 16.6591 5.76795 16.2403C5.79041 15.8215 5.71882 15.4029 5.55842 15.0154C5.39803 14.6279 5.1529 14.2812 4.84102 14.0007C4.52915 13.7203 4.15844 13.5132 3.75611 13.3947L3.27761 13.2537C2.02511 12.8847 2.02511 11.1117 3.27761 10.7427L3.75611 10.6017C4.15781 10.4831 4.52791 10.2761 4.83932 9.99602C5.15072 9.71589 5.39555 9.36968 5.55589 8.98272C5.71622 8.59576 5.788 8.17785 5.76598 7.75957C5.74396 7.34129 5.62869 6.93322 5.42861 6.56524L5.18861 6.12724C4.56611 4.98124 5.81861 3.72724 6.96611 4.35124L7.40411 4.58974C7.77215 4.7901 8.18035 4.9056 8.59881 4.92777C9.01727 4.94994 9.43539 4.87822 9.82254 4.71786C10.2097 4.55751 10.5561 4.31258 10.8363 4.00102C11.1165 3.68946 11.3235 3.31916 11.4421 2.91724L11.5831 2.43874Z" fill="black"/>
</g>
<defs>
<clipPath id="clip0_525_3256">
<rect width="24" height="24" fill="white" transform="translate(0.838867)"/>
</clipPath>
</defs>
</svg>
