<svg width="34" height="34" viewBox="0 0 34 34" fill="none" xmlns="http://www.w3.org/2000/svg">
<circle cx="17" cy="17" r="17" fill="white" fill-opacity="0.13"/>
<g clip-path="url(#clip0_676_3524)">
<path d="M17 6.5C15.0109 6.5 13.1032 7.29018 11.6967 8.6967C10.2902 10.1032 9.5 12.0109 9.5 14V15.5H11C11.3978 15.5 11.7794 15.658 12.0607 15.9393C12.342 16.2206 12.5 16.6022 12.5 17V21.5C12.5 21.8978 12.342 22.2794 12.0607 22.5607C11.7794 22.842 11.3978 23 11 23H9.5C9.10218 23 8.72064 22.842 8.43934 22.5607C8.15804 22.2794 8 21.8978 8 21.5V14C8 12.8181 8.23279 11.6478 8.68508 10.5558C9.13738 9.46392 9.80031 8.47177 10.636 7.63604C11.4718 6.80031 12.4639 6.13738 13.5558 5.68508C14.6478 5.23279 15.8181 5 17 5C18.1819 5 19.3522 5.23279 20.4442 5.68508C21.5361 6.13738 22.5282 6.80031 23.364 7.63604C24.1997 8.47177 24.8626 9.46392 25.3149 10.5558C25.7672 11.6478 26 12.8181 26 14V23C26 23.9946 25.6049 24.9484 24.9016 25.6516C24.1984 26.3549 23.2446 26.75 22.25 26.75H19.049C18.9174 26.978 18.728 27.1674 18.5 27.299C18.272 27.4307 18.0133 27.5 17.75 27.5H16.25C15.8522 27.5 15.4706 27.342 15.1893 27.0607C14.908 26.7794 14.75 26.3978 14.75 26C14.75 25.6022 14.908 25.2206 15.1893 24.9393C15.4706 24.658 15.8522 24.5 16.25 24.5H17.75C18.0133 24.5 18.272 24.5693 18.5 24.701C18.728 24.8326 18.9174 25.022 19.049 25.25H22.25C22.8467 25.25 23.419 25.0129 23.841 24.591C24.2629 24.169 24.5 23.5967 24.5 23H23C22.6022 23 22.2206 22.842 21.9393 22.5607C21.658 22.2794 21.5 21.8978 21.5 21.5V17C21.5 16.6022 21.658 16.2206 21.9393 15.9393C22.2206 15.658 22.6022 15.5 23 15.5H24.5V14C24.5 13.0151 24.306 12.0398 23.9291 11.1299C23.5522 10.2199 22.9997 9.39314 22.3033 8.6967C21.6069 8.00026 20.7801 7.44781 19.8701 7.0709C18.9602 6.69399 17.9849 6.5 17 6.5Z" fill="white"/>
</g>
<defs>
<clipPath id="clip0_676_3524">
<rect width="24" height="24" fill="white" transform="translate(5 5)"/>
</clipPath>
</defs>
</svg>
