<svg width="34" height="34" viewBox="0 0 34 34" fill="none" xmlns="http://www.w3.org/2000/svg">
<circle cx="17" cy="17" r="17" fill="white" fill-opacity="0.13"/>
<path d="M25 25V14.132L17 9.33199L9 14.132V25H13V22.25C13 21.1891 13.4214 20.1717 14.1716 19.4216C14.9217 18.6714 15.9391 18.25 17 18.25C18.0609 18.25 19.0783 18.6714 19.8284 19.4216C20.5786 20.1717 21 21.1891 21 22.25V25H25ZM19 27V22.25C19 21.7196 18.7893 21.2108 18.4142 20.8358C18.0391 20.4607 17.5304 20.25 17 20.25C16.4696 20.25 15.9609 20.4607 15.5858 20.8358C15.2107 21.2108 15 21.7196 15 22.25V27H9C8.46957 27 7.96086 26.7893 7.58579 26.4142C7.21071 26.0391 7 25.5304 7 25V14.132C7 13.7866 7.08943 13.4471 7.25959 13.1466C7.42976 12.846 7.67485 12.5947 7.971 12.417L15.971 7.61699C16.2818 7.43049 16.6375 7.33197 17 7.33197C17.3625 7.33197 17.7182 7.43049 18.029 7.61699L26.029 12.417C26.3252 12.5947 26.5702 12.846 26.7404 13.1466C26.9106 13.4471 27 13.7866 27 14.132V25C27 25.5304 26.7893 26.0391 26.4142 26.4142C26.0391 26.7893 25.5304 27 25 27H19Z" fill="white"/>
</svg>
