<svg width="25" height="24" viewBox="0 0 25 24" fill="none" xmlns="http://www.w3.org/2000/svg">
<g clip-path="url(#clip0_525_3301)">
<path d="M21.0856 0.753577L21.3091 0.530077C21.4773 0.361953 21.677 0.228608 21.8968 0.137657C22.1165 0.0467064 22.352 -6.95663e-05 22.5899 7.76543e-08C22.8277 6.97216e-05 23.0632 0.0469836 23.2829 0.138063C23.5026 0.229143 23.7022 0.362604 23.8703 0.530827C24.0385 0.699051 24.1718 0.898741 24.2628 1.1185C24.3537 1.33825 24.4005 1.57377 24.4004 1.81161C24.4003 2.04944 24.3534 2.28493 24.2624 2.50464C24.1713 2.72434 24.0378 2.92395 23.8696 3.09208L23.6461 3.31408C24.0284 3.74287 24.2322 4.30167 24.2158 4.87592C24.1993 5.45017 23.9638 5.99638 23.5576 6.40258L8.11959 21.8421C8.02308 21.9381 7.90226 22.006 7.77009 22.0386L1.77009 23.5386C1.64453 23.5698 1.51301 23.5681 1.38833 23.5335C1.26365 23.4989 1.15003 23.4326 1.05854 23.3411C0.967041 23.2496 0.900772 23.136 0.866174 23.0113C0.831576 22.8867 0.829825 22.7551 0.861091 22.6296L2.36109 16.6296C2.39391 16.4979 2.46182 16.3777 2.55759 16.2816L17.0206 1.81858C16.8759 1.71677 16.7 1.66937 16.5238 1.68474C16.3475 1.70011 16.1824 1.77727 16.0576 1.90258L11.1196 6.84208C11.0499 6.91181 10.9671 6.96712 10.876 7.00486C10.7849 7.0426 10.6872 7.06203 10.5886 7.06203C10.49 7.06203 10.3923 7.0426 10.3012 7.00486C10.2101 6.96712 10.1273 6.91181 10.0576 6.84208C9.98786 6.77235 9.93254 6.68956 9.8948 6.59845C9.85707 6.50734 9.83764 6.40969 9.83764 6.31108C9.83764 6.21246 9.85707 6.11481 9.8948 6.0237C9.93254 5.93259 9.98786 5.84981 10.0576 5.78008L14.9986 0.842077C15.4051 0.4356 15.9517 0.200109 16.5263 0.18393C17.1009 0.167752 17.6599 0.372114 18.0886 0.755077C18.5007 0.386735 19.034 0.182995 19.5868 0.182719C20.1396 0.182442 20.6731 0.385648 21.0856 0.753577ZM20.1196 1.90258C19.9789 1.76197 19.7882 1.68299 19.5893 1.68299C19.3905 1.68299 19.1997 1.76197 19.0591 1.90258L3.76359 17.1951L2.61759 21.7806L7.20309 20.6346L22.4986 5.34208C22.5684 5.27241 22.6238 5.18965 22.6617 5.09853C22.6995 5.00741 22.7189 4.90973 22.7189 4.81108C22.7189 4.71243 22.6995 4.61474 22.6617 4.52363C22.6238 4.43251 22.5684 4.34975 22.4986 4.28008L20.1211 1.90258H20.1196Z" fill="black"/>
</g>
<defs>
<clipPath id="clip0_525_3301">
<rect width="24" height="24" fill="white" transform="translate(0.838867)"/>
</clipPath>
</defs>
</svg>
