<svg width="25" height="24" viewBox="0 0 25 24" fill="none" xmlns="http://www.w3.org/2000/svg">
<g clip-path="url(#clip0_525_3409)">
<path d="M19.0576 0.219425C19.1272 0.14958 19.21 0.094166 19.3011 0.0563564C19.3922 0.0185467 19.4899 -0.000915527 19.5886 -0.000915527C19.6872 -0.000915527 19.7849 0.0185467 19.876 0.0563564C19.9671 0.094166 20.0499 0.14958 20.1196 0.219425L24.6196 4.71943C24.6894 4.78909 24.7448 4.87186 24.7826 4.96297C24.8205 5.05409 24.8399 5.15177 24.8399 5.25043C24.8399 5.34908 24.8205 5.44676 24.7826 5.53788C24.7448 5.62899 24.6894 5.71176 24.6196 5.78143L9.61958 20.7814C9.5476 20.8529 9.46187 20.909 9.36758 20.9464L1.86758 23.9464C1.73128 24.001 1.58197 24.0143 1.43816 23.9848C1.29434 23.9553 1.16235 23.8843 1.05854 23.7805C0.954728 23.6767 0.883667 23.5447 0.854166 23.4008C0.824665 23.257 0.83802 23.1077 0.892576 22.9714L3.89258 15.4714C3.92997 15.3771 3.9861 15.2914 4.05758 15.2194L19.0576 0.219425ZM17.6491 3.75043L21.0886 7.18993L23.0281 5.25043L19.5886 1.81093L17.6491 3.75043ZM20.0281 8.25043L16.5886 4.81093L6.83858 14.5609V15.0004H7.58858C7.78749 15.0004 7.97825 15.0794 8.11891 15.2201C8.25956 15.3607 8.33858 15.5515 8.33858 15.7504V16.5004H9.08858C9.28749 16.5004 9.47825 16.5794 9.61891 16.7201C9.75956 16.8607 9.83858 17.0515 9.83858 17.2504V18.0004H10.2781L20.0281 8.25043ZM5.38658 16.0129L5.22758 16.1719L2.93558 21.9034L8.66708 19.6114L8.82608 19.4524C8.68301 19.399 8.55967 19.3031 8.47255 19.1777C8.38543 19.0522 8.33869 18.9032 8.33858 18.7504V18.0004H7.58858C7.38966 18.0004 7.1989 17.9214 7.05825 17.7808C6.91759 17.6401 6.83858 17.4493 6.83858 17.2504V16.5004H6.08858C5.93585 16.5003 5.78679 16.4536 5.66134 16.3665C5.53589 16.2793 5.44003 16.156 5.38658 16.0129Z" fill="black"/>
</g>
<defs>
<clipPath id="clip0_525_3409">
<rect width="24" height="24" fill="white" transform="translate(0.838867)"/>
</clipPath>
</defs>
</svg>
