<svg width="24" height="24" viewBox="0 0 24 24" fill="none" xmlns="http://www.w3.org/2000/svg">
<g clip-path="url(#clip0_525_3290)">
<path d="M21 14C21 14.7956 20.6839 15.5587 20.1213 16.1213C19.5587 16.6839 18.7956 17 18 17C17.2044 17 16.4413 16.6839 15.8787 16.1213C15.3161 15.5587 15 14.7956 15 14C15 13.2044 15.3161 12.4413 15.8787 11.8787C16.4413 11.3161 17.2044 11 18 11C18.7956 11 19.5587 11.3161 20.1213 11.8787C20.6839 12.4413 21 13.2044 21 14ZM12 22.55C12 23.75 13.2 23.75 13.2 23.75H22.8C22.8 23.75 24 23.75 24 22.55C24 21.35 22.8 17.75 18 17.75C13.2 17.75 12 21.35 12 22.55Z" fill="black"/>
<path d="M3 3C2.20435 3 1.44129 3.31607 0.87868 3.87868C0.316071 4.44129 0 5.20435 0 6L0 18C0 18.7956 0.316071 19.5587 0.87868 20.1213C1.44129 20.6839 2.20435 21 3 21H10.8645C11.0475 20.511 11.307 19.998 11.6535 19.5H3C2.60218 19.5 2.22064 19.342 1.93934 19.0607C1.65804 18.7794 1.5 18.3978 1.5 18V6C1.5 5.60218 1.65804 5.22064 1.93934 4.93934C2.22064 4.65804 2.60218 4.5 3 4.5H21C21.3978 4.5 21.7794 4.65804 22.0607 4.93934C22.342 5.22064 22.5 5.60218 22.5 6V17.715C23.0295 18.06 23.484 18.459 23.865 18.8895C23.9535 18.609 24 18.3105 24 18V6C24 5.20435 23.6839 4.44129 23.1213 3.87868C22.5587 3.31607 21.7956 3 21 3H3Z" fill="black"/>
</g>
<defs>
<clipPath id="clip0_525_3290">
<rect width="24" height="24" fill="white"/>
</clipPath>
</defs>
</svg>
