<svg width="24" height="24" viewBox="0 0 24 24" fill="none" xmlns="http://www.w3.org/2000/svg">
<g clip-path="url(#clip0_525_3303)">
<path d="M6.5 24.425C6.5 24.425 5 24.425 5 22.925C5 21.425 6.5 16.925 12.5 16.925C18.5 16.925 20 21.425 20 22.925C20 24.425 18.5 24.425 18.5 24.425H6.5ZM12.5 15.5C13.4946 15.5 14.4484 15.1049 15.1517 14.4017C15.8549 13.6984 16.25 12.7446 16.25 11.75C16.25 10.7554 15.8549 9.80161 15.1517 9.09835C14.4484 8.39509 13.4946 8 12.5 8C11.5054 8 10.5516 8.39509 9.84835 9.09835C9.14509 9.80161 8.75 10.7554 8.75 11.75C8.75 12.7446 9.14509 13.6984 9.84835 14.4017C10.5516 15.1049 11.5054 15.5 12.5 15.5Z" fill="black"/>
<path d="M3 2C2.20435 2 1.44129 2.31607 0.87868 2.87868C0.316071 3.44129 0 4.20435 0 5L0 19.25C0 19.8467 0.237053 20.419 0.65901 20.841C1.08097 21.2629 1.65326 21.5 2.25 21.5H3.2295C3.54314 20.3977 4.08826 19.3749 4.8285 18.5H1.5V5C1.5 4.60218 1.65804 4.22064 1.93934 3.93934C2.22064 3.65804 2.60218 3.5 3 3.5H21C21.3978 3.5 21.7794 3.65804 22.0607 3.93934C22.342 4.22064 22.5 4.60218 22.5 5V18.5H19.1715C20.0025 19.481 20.5065 20.5595 20.7705 21.5H21.75C22.3467 21.5 22.919 21.2629 23.341 20.841C23.7629 20.419 24 19.8467 24 19.25V5C24 4.20435 23.6839 3.44129 23.1213 2.87868C22.5587 2.31607 21.7956 2 21 2H3Z" fill="black"/>
</g>
<defs>
<clipPath id="clip0_525_3303">
<rect width="24" height="24" fill="white"/>
</clipPath>
</defs>
</svg>
