<svg width="25" height="24" viewBox="0 0 25 24" fill="none" xmlns="http://www.w3.org/2000/svg">
<g clip-path="url(#clip0_525_3411)">
<path d="M12.8389 22.5C10.0541 22.5 7.38338 21.3938 5.41425 19.4246C3.44511 17.4555 2.33887 14.7848 2.33887 12C2.33887 9.21523 3.44511 6.54451 5.41425 4.57538C7.38338 2.60625 10.0541 1.5 12.8389 1.5C15.6236 1.5 18.2944 2.60625 20.2635 4.57538C22.2326 6.54451 23.3389 9.21523 23.3389 12C23.3389 14.7848 22.2326 17.4555 20.2635 19.4246C18.2944 21.3938 15.6236 22.5 12.8389 22.5ZM12.8389 24C16.0215 24 19.0737 22.7357 21.3242 20.4853C23.5746 18.2348 24.8389 15.1826 24.8389 12C24.8389 8.8174 23.5746 5.76516 21.3242 3.51472C19.0737 1.26428 16.0215 0 12.8389 0C9.65627 0 6.60402 1.26428 4.35359 3.51472C2.10315 5.76516 0.838867 8.8174 0.838867 12C0.838867 15.1826 2.10315 18.2348 4.35359 20.4853C6.60402 22.7357 9.65627 24 12.8389 24Z" fill="black"/>
<path d="M12.8389 6C13.0378 6 13.2285 6.07902 13.3692 6.21967C13.5099 6.36032 13.5889 6.55109 13.5889 6.75V11.25H18.0889C18.2878 11.25 18.4785 11.329 18.6192 11.4697C18.7599 11.6103 18.8389 11.8011 18.8389 12C18.8389 12.1989 18.7599 12.3897 18.6192 12.5303C18.4785 12.671 18.2878 12.75 18.0889 12.75H13.5889V17.25C13.5889 17.4489 13.5099 17.6397 13.3692 17.7803C13.2285 17.921 13.0378 18 12.8389 18C12.64 18 12.4492 17.921 12.3085 17.7803C12.1679 17.6397 12.0889 17.4489 12.0889 17.25V12.75H7.58887C7.38995 12.75 7.19919 12.671 7.05854 12.5303C6.91788 12.3897 6.83887 12.1989 6.83887 12C6.83887 11.8011 6.91788 11.6103 7.05854 11.4697C7.19919 11.329 7.38995 11.25 7.58887 11.25H12.0889V6.75C12.0889 6.55109 12.1679 6.36032 12.3085 6.21967C12.4492 6.07902 12.64 6 12.8389 6Z" fill="black"/>
</g>
<defs>
<clipPath id="clip0_525_3411">
<rect width="24" height="24" fill="white" transform="translate(0.838867)"/>
</clipPath>
</defs>
</svg>
