<svg width="24" height="24" viewBox="0 0 24 24" fill="none" xmlns="http://www.w3.org/2000/svg">
<g clip-path="url(#clip0_525_3483)">
<path d="M13.6178 2.13273C13.4209 1.7886 13.1366 1.50259 12.7936 1.30368C12.4507 1.10476 12.0612 1 11.6648 1C11.2683 1 10.8789 1.10476 10.5359 1.30368C10.193 1.50259 9.90865 1.7886 9.71177 2.13273L7.15577 6.60273C7.05692 6.77559 7.03077 6.98063 7.08309 7.17276C7.13542 7.36489 7.26192 7.52837 7.43477 7.62723C7.60763 7.72609 7.81268 7.75223 8.00481 7.69991C8.19694 7.64759 8.36042 7.52108 8.45927 7.34823L11.0138 2.87673C11.0794 2.76202 11.1742 2.66668 11.2885 2.60038C11.4028 2.53407 11.5326 2.49915 11.6648 2.49915C11.7969 2.49915 11.9267 2.53407 12.0411 2.60038C12.1554 2.66668 12.2501 2.76202 12.3158 2.87673L16.1258 9.54273L14.2418 9.03723C14.0496 8.98551 13.8448 9.01225 13.6724 9.11155C13.4999 9.21085 13.374 9.37458 13.3223 9.56673C13.2706 9.75888 13.2973 9.9637 13.3966 10.1361C13.4959 10.3086 13.6596 10.4345 13.8518 10.4862L17.4743 11.4567C17.5694 11.4824 17.6687 11.489 17.7664 11.4763C17.8641 11.4636 17.9584 11.4317 18.0437 11.3825C18.1291 11.3333 18.204 11.2678 18.2641 11.1897C18.3241 11.1116 18.3682 11.0224 18.3938 10.9272L19.3643 7.30473C19.3898 7.20959 19.3963 7.11035 19.3835 7.01269C19.3706 6.91503 19.3387 6.82085 19.2894 6.73554C19.2402 6.65022 19.1746 6.57544 19.0965 6.51547C19.0184 6.45549 18.9292 6.41149 18.834 6.38598C18.7389 6.36047 18.6396 6.35395 18.542 6.36679C18.4443 6.37964 18.3501 6.41159 18.2648 6.46083C18.1795 6.51006 18.1047 6.57562 18.0448 6.65376C17.9848 6.7319 17.9408 6.82109 17.9153 6.91623L17.4158 8.77923L13.6178 2.13273ZM4.12427 11.9082L2.24177 12.4137C2.04963 12.4654 1.8448 12.4387 1.67236 12.3394C1.49992 12.2401 1.37399 12.0764 1.32227 11.8842C1.27056 11.6921 1.29729 11.4873 1.39659 11.3148C1.49589 11.1424 1.65963 11.0164 1.85177 10.9647L5.47577 9.99423C5.66772 9.94289 5.87219 9.96981 6.04431 10.0691C6.21642 10.1684 6.34211 10.3319 6.39377 10.5237L7.36427 14.1462C7.41579 14.3384 7.38887 14.5431 7.28943 14.7154C7.18999 14.8877 7.02617 15.0135 6.83402 15.065C6.64188 15.1165 6.43713 15.0896 6.26483 14.9901C6.09253 14.8907 5.96679 14.7269 5.91527 14.5347L5.41577 12.6717L1.59827 19.3527C1.53313 19.4668 1.49908 19.5959 1.49952 19.7273C1.49996 19.8586 1.53489 19.9875 1.6008 20.1011C1.66672 20.2147 1.76131 20.309 1.87511 20.3746C1.98891 20.4402 2.11794 20.4747 2.24927 20.4747H7.16477C7.36369 20.4747 7.55445 20.5537 7.6951 20.6944C7.83576 20.8351 7.91477 21.0258 7.91477 21.2247C7.91477 21.4236 7.83576 21.6144 7.6951 21.7551C7.55445 21.8957 7.36369 21.9747 7.16477 21.9747H2.24927C1.85526 21.9746 1.46818 21.871 1.12678 21.6743C0.785369 21.4776 0.5016 21.1947 0.303861 20.8539C0.106121 20.5131 0.00134416 20.1263 1.28472e-05 19.7323C-0.00131847 19.3383 0.100842 18.9509 0.296274 18.6087L4.12427 11.9082ZM20.4593 14.1027C20.4117 14.0148 20.3471 13.9372 20.2691 13.8746C20.1912 13.812 20.1015 13.7656 20.0054 13.7381C19.9092 13.7107 19.8085 13.7027 19.7093 13.7148C19.61 13.7268 19.5142 13.7585 19.4274 13.8081C19.3406 13.8577 19.2645 13.9242 19.2038 14.0036C19.143 14.083 19.0988 14.1738 19.0736 14.2706C19.0484 14.3673 19.0429 14.4681 19.0573 14.5671C19.0716 14.666 19.1056 14.7611 19.1573 14.8467L21.7313 19.3527C21.7964 19.4668 21.8305 19.5959 21.83 19.7273C21.8296 19.8586 21.7947 19.9875 21.7287 20.1011C21.6628 20.2147 21.5682 20.309 21.4544 20.3746C21.3406 20.4402 21.2116 20.4747 21.0803 20.4747H12.7253L13.6958 19.5057C13.8364 19.3649 13.9153 19.174 13.9152 18.975C13.9151 18.7759 13.8359 18.5851 13.695 18.4445C13.6253 18.3748 13.5425 18.3196 13.4515 18.282C13.3604 18.2443 13.2628 18.225 13.1642 18.2251C12.9652 18.2252 12.7744 18.3044 12.6338 18.4452L10.3838 20.6952C10.3138 20.7647 10.2583 20.8473 10.2204 20.9383C10.1824 21.0293 10.1629 21.1269 10.1629 21.2255C10.1629 21.3241 10.1824 21.4217 10.2204 21.5127C10.2583 21.6037 10.3138 21.6863 10.3838 21.7557L12.6338 24.0057C12.7744 24.1466 12.9652 24.2258 13.1642 24.2259C13.2628 24.226 13.3604 24.2066 13.4515 24.169C13.5425 24.1313 13.6253 24.0761 13.695 24.0065C13.7648 23.9368 13.8201 23.8542 13.8579 23.7631C13.8956 23.6721 13.9151 23.5746 13.9152 23.476C13.9153 23.3775 13.8959 23.2799 13.8583 23.1888C13.8206 23.0977 13.7654 23.015 13.6958 22.9452L12.7253 21.9747H21.0803C21.4743 21.9746 21.8614 21.871 22.2028 21.6743C22.5442 21.4776 22.8279 21.1947 23.0257 20.8539C23.2234 20.5131 23.3282 20.1263 23.3295 19.7323C23.3309 19.3383 23.2287 18.9509 23.0333 18.6087L20.4593 14.1027Z" fill="black"/>
</g>
<defs>
<clipPath id="clip0_525_3483">
<rect width="24" height="24" fill="white"/>
</clipPath>
</defs>
</svg>
