<svg width="24" height="24" viewBox="0 0 24 24" fill="none" xmlns="http://www.w3.org/2000/svg">
<path d="M8.10801 0.84C9.73551 0.3975 11.465 0 12.5 0C13.535 0 15.2645 0.3975 16.892 0.84C18.557 1.29 20.2355 1.8225 21.2225 2.145C21.6352 2.28128 22.001 2.5312 22.278 2.86605C22.555 3.20091 22.732 3.60711 22.7885 4.038C23.6825 10.7535 21.608 15.7305 19.091 19.023C18.0237 20.4315 16.751 21.6718 15.3155 22.7025C14.8191 23.0592 14.2932 23.3728 13.7435 23.64C13.3235 23.838 12.872 24 12.5 24C12.128 24 11.678 23.838 11.2565 23.64C10.7068 23.3728 10.1809 23.0592 9.68451 22.7025C8.24905 21.6717 6.97638 20.4314 5.90901 19.023C3.39201 15.7305 1.31751 10.7535 2.21151 4.038C2.26804 3.60711 2.44497 3.20091 2.72198 2.86605C2.99899 2.5312 3.36485 2.28128 3.77751 2.145C5.2103 1.67521 6.65422 1.24009 8.10801 0.84Z" fill="black"/>
</svg>
