<svg width="24" height="24" viewBox="0 0 24 24" fill="none" xmlns="http://www.w3.org/2000/svg">
<path d="M11.5 0C10.465 0 8.73551 0.3975 7.10801 0.84C5.44301 1.29 3.76451 1.8225 2.77751 2.145C2.36485 2.28128 1.99899 2.5312 1.72198 2.86605C1.44497 3.20091 1.26804 3.60711 1.21151 4.038C0.317508 10.7535 2.39201 15.7305 4.90901 19.023C5.97638 20.4314 7.24905 21.6717 8.68451 22.7025C9.26351 23.112 9.80051 23.4255 10.2565 23.64C10.6765 23.838 11.128 24 11.5 24C11.872 24 12.322 23.838 12.7435 23.64C13.2932 23.3728 13.8191 23.0592 14.3155 22.7025C15.751 21.6718 17.0237 20.4315 18.091 19.023C20.608 15.7305 22.6825 10.7535 21.7885 4.038C21.7321 3.6069 21.5552 3.20046 21.2782 2.86535C21.0012 2.53024 20.6353 2.28004 20.2225 2.1435C18.7897 1.67372 17.3458 1.23859 15.892 0.8385C14.2645 0.399 12.535 0 11.5 0ZM9.78101 7.719L11.5 9.4395L13.219 7.719C13.3598 7.57817 13.5508 7.49905 13.75 7.49905C13.9492 7.49905 14.1402 7.57817 14.281 7.719C14.4218 7.85983 14.501 8.05084 14.501 8.25C14.501 8.44916 14.4218 8.64017 14.281 8.781L12.5605 10.5L14.281 12.219C14.4218 12.3598 14.501 12.5508 14.501 12.75C14.501 12.9492 14.4218 13.1402 14.281 13.281C14.1402 13.4218 13.9492 13.5009 13.75 13.5009C13.5508 13.5009 13.3598 13.4218 13.219 13.281L11.5 11.5605L9.78101 13.281C9.71128 13.3507 9.62849 13.406 9.53738 13.4438C9.44627 13.4815 9.34862 13.5009 9.25001 13.5009C9.15139 13.5009 9.05374 13.4815 8.96263 13.4438C8.87152 13.406 8.78874 13.3507 8.71901 13.281C8.64928 13.2113 8.59396 13.1285 8.55622 13.0374C8.51848 12.9463 8.49906 12.8486 8.49906 12.75C8.49906 12.6514 8.51848 12.5537 8.55622 12.4626C8.59396 12.3715 8.64928 12.2887 8.71901 12.219L10.4395 10.5L8.71901 8.781C8.64928 8.71127 8.59396 8.62848 8.55622 8.53738C8.51848 8.44627 8.49906 8.34862 8.49906 8.25C8.49906 8.15138 8.51848 8.05373 8.55622 7.96262C8.59396 7.87152 8.64928 7.78873 8.71901 7.719C8.78874 7.64927 8.87152 7.59395 8.96263 7.55621C9.05374 7.51848 9.15139 7.49905 9.25001 7.49905C9.34862 7.49905 9.44627 7.51848 9.53738 7.55621C9.62849 7.59395 9.71128 7.64927 9.78101 7.719Z" fill="black"/>
</svg>
