<svg width="34" height="34" viewBox="0 0 34 34" fill="none" xmlns="http://www.w3.org/2000/svg">
<circle cx="17" cy="17" r="17" fill="white" fill-opacity="0.13"/>
<path d="M14.75 6C14.1533 6 13.581 6.26744 13.159 6.7435C12.7371 7.21955 12.5 7.86522 12.5 8.53846V9.38462H7.25C6.65326 9.38462 6.08097 9.65206 5.65901 10.1281C5.23705 10.6042 5 11.2498 5 11.9231V25.4615C5 26.1348 5.23705 26.7804 5.65901 27.2565C6.08097 27.7326 6.65326 28 7.25 28H26.75C27.3467 28 27.919 27.7326 28.341 27.2565C28.7629 26.7804 29 26.1348 29 25.4615V11.9231C29 11.2498 28.7629 10.6042 28.341 10.1281C27.919 9.65206 27.3467 9.38462 26.75 9.38462H21.5V8.53846C21.5 7.86522 21.2629 7.21955 20.841 6.7435C20.419 6.26744 19.8467 6 19.25 6H14.75ZM14.75 7.69231H19.25C19.4489 7.69231 19.6397 7.78146 19.7803 7.94014C19.921 8.09883 20 8.31405 20 8.53846V9.38462H14V8.53846C14 8.31405 14.079 8.09883 14.2197 7.94014C14.3603 7.78146 14.5511 7.69231 14.75 7.69231ZM17.579 19.3929L27.5 16.4094V25.4615C27.5 25.686 27.421 25.9012 27.2803 26.0599C27.1397 26.2185 26.9489 26.3077 26.75 26.3077H7.25C7.05109 26.3077 6.86032 26.2185 6.71967 26.0599C6.57902 25.9012 6.5 25.686 6.5 25.4615V16.4077L16.421 19.3929C16.8004 19.5069 17.1996 19.5069 17.579 19.3929ZM7.25 11.0769H26.75C26.9489 11.0769 27.1397 11.1661 27.2803 11.3248C27.421 11.4834 27.5 11.6987 27.5 11.9231V14.6578L17.1935 17.7582C17.0667 17.7963 16.9333 17.7963 16.8065 17.7582L6.5 14.6578V11.9231C6.5 11.6987 6.57902 11.4834 6.71967 11.3248C6.86032 11.1661 7.05109 11.0769 7.25 11.0769Z" fill="white"/>
</svg>
