<svg width="24" height="20" viewBox="0 0 24 20" fill="none" xmlns="http://www.w3.org/2000/svg">
<path d="M13.3332 20V14.0741H17.3332L11.9998 6.66669L6.6665 14.0741H10.6665V20H13.3332Z" fill="black"/>
<path d="M6 20H8.4V17.1429H6C4.0152 17.1429 2.4 15.22 2.4 12.8571C2.4 10.8514 3.8388 8.92 5.6076 8.55L6.3048 8.40429L6.5352 7.60714C7.3788 4.67714 9.474 2.85714 12 2.85714C15.3084 2.85714 18 6.06143 18 10V11.4286H19.2C20.5236 11.4286 21.6 12.71 21.6 14.2857C21.6 15.8614 20.5236 17.1429 19.2 17.1429H15.6V20H19.2C21.8472 20 24 17.4371 24 14.2857C23.9982 13.0052 23.636 11.7623 22.9712 10.7555C22.3065 9.74869 21.3776 9.03608 20.3328 8.73143C19.8084 3.81429 16.272 0 12 0C8.6928 0 5.82 2.30143 4.5084 5.92857C1.9308 6.84571 0 9.74286 0 12.8571C0 16.7957 2.6916 20 6 20Z" fill="black"/>
</svg>
