<svg width="24" height="24" viewBox="0 0 24 24" fill="none" xmlns="http://www.w3.org/2000/svg">
<path fill-rule="evenodd" clip-rule="evenodd" d="M2 12C2 11.8011 2.07902 11.6103 2.21967 11.4697C2.36032 11.329 2.55109 11.25 2.75 11.25H22.25C22.4489 11.25 22.6397 11.329 22.7803 11.4697C22.921 11.6103 23 11.8011 23 12C23 12.1989 22.921 12.3897 22.7803 12.5303C22.6397 12.671 22.4489 12.75 22.25 12.75H2.75C2.55109 12.75 2.36032 12.671 2.21967 12.5303C2.07902 12.3897 2 12.1989 2 12ZM12.5 0C12.6989 0 12.8897 0.0790176 13.0303 0.21967C13.171 0.360322 13.25 0.551088 13.25 0.75V6.4395L14.969 4.719C15.1098 4.57817 15.3008 4.49905 15.5 4.49905C15.6992 4.49905 15.8902 4.57817 16.031 4.719C16.1718 4.85983 16.2509 5.05084 16.2509 5.25C16.2509 5.44916 16.1718 5.64017 16.031 5.781L13.031 8.781C12.9613 8.85085 12.8786 8.90626 12.7874 8.94407C12.6963 8.98188 12.5987 9.00134 12.5 9.00134C12.4013 9.00134 12.3037 8.98188 12.2125 8.94407C12.1214 8.90626 12.0387 8.85085 11.969 8.781L8.969 5.781C8.82817 5.64017 8.74905 5.44916 8.74905 5.25C8.74905 5.05084 8.82817 4.85983 8.969 4.719C9.10983 4.57817 9.30084 4.49905 9.5 4.49905C9.69916 4.49905 9.89017 4.57817 10.031 4.719L11.75 6.4395V0.75C11.75 0.551088 11.829 0.360322 11.9697 0.21967C12.1103 0.0790176 12.3011 0 12.5 0V0ZM11.75 17.5605L10.031 19.281C9.89017 19.4218 9.69916 19.5009 9.5 19.5009C9.30084 19.5009 9.10983 19.4218 8.969 19.281C8.82817 19.1402 8.74905 18.9492 8.74905 18.75C8.74905 18.5508 8.82817 18.3598 8.969 18.219L11.969 15.219C12.0387 15.1492 12.1214 15.0937 12.2125 15.0559C12.3037 15.0181 12.4013 14.9987 12.5 14.9987C12.5987 14.9987 12.6963 15.0181 12.7874 15.0559C12.8786 15.0937 12.9613 15.1492 13.031 15.219L16.031 18.219C16.1718 18.3598 16.2509 18.5508 16.2509 18.75C16.2509 18.9492 16.1718 19.1402 16.031 19.281C15.8902 19.4218 15.6992 19.5009 15.5 19.5009C15.3008 19.5009 15.1098 19.4218 14.969 19.281L13.25 17.5605V23.25C13.25 23.4489 13.171 23.6397 13.0303 23.7803C12.8897 23.921 12.6989 24 12.5 24C12.3011 24 12.1103 23.921 11.9697 23.7803C11.829 23.6397 11.75 23.4489 11.75 23.25V17.5605Z" fill="black"/>
</svg>
