<svg width="24" height="24" viewBox="0 0 24 24" fill="none" xmlns="http://www.w3.org/2000/svg">
<g clip-path="url(#clip0_525_3384)">
<path d="M8 17.684H13.2125C15.9185 17.684 17.5445 16.322 17.5445 14.09C17.5445 12.437 16.403 11.216 14.6885 11.039V10.889C15.9365 10.679 16.9115 9.494 16.9115 8.165C16.9115 6.215 15.479 5 13.0985 5H8V17.684ZM9.9695 10.3715V6.671H12.6395C14.099 6.671 14.9525 7.3565 14.9525 8.5265C14.9525 9.7295 14.0465 10.3715 12.3065 10.3715H9.9695ZM9.9695 16.0145V11.927H12.7025C14.5565 11.927 15.533 12.6215 15.533 13.949C15.533 15.293 14.5925 16.0145 12.8165 16.0145H9.9695Z" fill="black"/>
<path d="M0 6C0 4.4087 0.632141 2.88258 1.75736 1.75736C2.88258 0.632141 4.4087 0 6 0L18 0C19.5913 0 21.1174 0.632141 22.2426 1.75736C23.3679 2.88258 24 4.4087 24 6V18C24 19.5913 23.3679 21.1174 22.2426 22.2426C21.1174 23.3679 19.5913 24 18 24H6C4.4087 24 2.88258 23.3679 1.75736 22.2426C0.632141 21.1174 0 19.5913 0 18V6ZM6 1.5C4.80653 1.5 3.66193 1.97411 2.81802 2.81802C1.97411 3.66193 1.5 4.80653 1.5 6V18C1.5 19.1935 1.97411 20.3381 2.81802 21.182C3.66193 22.0259 4.80653 22.5 6 22.5H18C19.1935 22.5 20.3381 22.0259 21.182 21.182C22.0259 20.3381 22.5 19.1935 22.5 18V6C22.5 4.80653 22.0259 3.66193 21.182 2.81802C20.3381 1.97411 19.1935 1.5 18 1.5H6Z" fill="black"/>
</g>
<defs>
<clipPath id="clip0_525_3384">
<rect width="24" height="24" fill="white"/>
</clipPath>
</defs>
</svg>
