<svg width="24" height="24" viewBox="0 0 24 24" fill="none" xmlns="http://www.w3.org/2000/svg">
<g clip-path="url(#clip0_525_3134)">
<path d="M21 1.5C21.3978 1.5 21.7794 1.65804 22.0607 1.93934C22.342 2.22064 22.5 2.60218 22.5 3V15C22.5 15.3978 22.342 15.7794 22.0607 16.0607C21.7794 16.342 21.3978 16.5 21 16.5H6.621C5.82542 16.5002 5.06248 16.8164 4.5 17.379L1.5 20.379V3C1.5 2.60218 1.65804 2.22064 1.93934 1.93934C2.22064 1.65804 2.60218 1.5 3 1.5H21ZM3 0C2.20435 0 1.44129 0.316071 0.87868 0.87868C0.316071 1.44129 0 2.20435 0 3L0 22.1895C3.15223e-05 22.3379 0.0440889 22.483 0.126596 22.6063C0.209103 22.7297 0.32635 22.8258 0.463499 22.8825C0.600648 22.9392 0.751531 22.9539 0.897054 22.9248C1.04258 22.8957 1.1762 22.8241 1.281 22.719L5.5605 18.4395C5.84174 18.1582 6.22321 18.0001 6.621 18H21C21.7956 18 22.5587 17.6839 23.1213 17.1213C23.6839 16.5587 24 15.7957 24 15V3C24 2.20435 23.6839 1.44129 23.1213 0.87868C22.5587 0.316071 21.7956 0 21 0L3 0Z" fill="black"/>
<path d="M8 9.5C8 9.89782 7.84196 10.2794 7.56066 10.5607C7.27936 10.842 6.89782 11 6.5 11C6.10218 11 5.72064 10.842 5.43934 10.5607C5.15804 10.2794 5 9.89782 5 9.5C5 9.10218 5.15804 8.72064 5.43934 8.43934C5.72064 8.15804 6.10218 8 6.5 8C6.89782 8 7.27936 8.15804 7.56066 8.43934C7.84196 8.72064 8 9.10218 8 9.5ZM14 9.5C14 9.89782 13.842 10.2794 13.5607 10.5607C13.2794 10.842 12.8978 11 12.5 11C12.1022 11 11.7206 10.842 11.4393 10.5607C11.158 10.2794 11 9.89782 11 9.5C11 9.10218 11.158 8.72064 11.4393 8.43934C11.7206 8.15804 12.1022 8 12.5 8C12.8978 8 13.2794 8.15804 13.5607 8.43934C13.842 8.72064 14 9.10218 14 9.5ZM20 9.5C20 9.89782 19.842 10.2794 19.5607 10.5607C19.2794 10.842 18.8978 11 18.5 11C18.1022 11 17.7206 10.842 17.4393 10.5607C17.158 10.2794 17 9.89782 17 9.5C17 9.10218 17.158 8.72064 17.4393 8.43934C17.7206 8.15804 18.1022 8 18.5 8C18.8978 8 19.2794 8.15804 19.5607 8.43934C19.842 8.72064 20 9.10218 20 9.5Z" fill="black"/>
</g>
<defs>
<clipPath id="clip0_525_3134">
<rect width="24" height="24" fill="white"/>
</clipPath>
</defs>
</svg>
