<svg width="24" height="24" viewBox="0 0 24 24" fill="none" xmlns="http://www.w3.org/2000/svg">
<path d="M17 8.75C17 8.94891 16.921 9.13968 16.7803 9.28033C16.6397 9.42098 16.4489 9.5 16.25 9.5C16.0511 9.5 15.8603 9.42098 15.7197 9.28033C15.579 9.13968 15.5 8.94891 15.5 8.75C15.5 8.55109 15.579 8.36032 15.7197 8.21967C15.8603 8.07902 16.0511 8 16.25 8C16.4489 8 16.6397 8.07902 16.7803 8.21967C16.921 8.36032 17 8.55109 17 8.75ZM14.75 11C14.9489 11 15.1397 10.921 15.2803 10.7803C15.421 10.6397 15.5 10.4489 15.5 10.25C15.5 10.0511 15.421 9.86032 15.2803 9.71967C15.1397 9.57902 14.9489 9.5 14.75 9.5C14.5511 9.5 14.3603 9.57902 14.2197 9.71967C14.079 9.86032 14 10.0511 14 10.25C14 10.4489 14.079 10.6397 14.2197 10.7803C14.3603 10.921 14.5511 11 14.75 11ZM18.5 10.25C18.5 10.4489 18.421 10.6397 18.2803 10.7803C18.1397 10.921 17.9489 11 17.75 11C17.5511 11 17.3603 10.921 17.2197 10.7803C17.079 10.6397 17 10.4489 17 10.25C17 10.0511 17.079 9.86032 17.2197 9.71967C17.3603 9.57902 17.5511 9.5 17.75 9.5C17.9489 9.5 18.1397 9.57902 18.2803 9.71967C18.421 9.86032 18.5 10.0511 18.5 10.25ZM16.25 12.5C16.4489 12.5 16.6397 12.421 16.7803 12.2803C16.921 12.1397 17 11.9489 17 11.75C17 11.5511 16.921 11.3603 16.7803 11.2197C16.6397 11.079 16.4489 11 16.25 11C16.0511 11 15.8603 11.079 15.7197 11.2197C15.579 11.3603 15.5 11.5511 15.5 11.75C15.5 11.9489 15.579 12.1397 15.7197 12.2803C15.8603 12.421 16.0511 12.5 16.25 12.5ZM6.5 8H8V9.5H9.5V11H8V12.5H6.5V11H5V9.5H6.5V8Z" fill="black"/>
<path d="M5.00901 4.72194C4.98339 4.62669 4.97681 4.52733 4.98964 4.42954C5.00247 4.33175 5.03446 4.23745 5.08379 4.15204C5.13311 4.06663 5.19879 3.99179 5.27708 3.9318C5.35537 3.87181 5.44472 3.82785 5.54001 3.80244L8.43801 3.02544C8.53764 2.99889 8.64167 2.99316 8.74361 3.00863C8.84555 3.02409 8.94321 3.0604 9.03048 3.1153C9.11775 3.1702 9.19277 3.2425 9.25085 3.32769C9.30892 3.41289 9.34881 3.50914 9.36801 3.61044C10.3505 3.49194 11.393 3.43494 12.4325 3.43494C13.5125 3.43494 14.597 3.49644 15.6125 3.62394C15.63 3.5211 15.6688 3.42306 15.7264 3.33606C15.784 3.24907 15.8591 3.17505 15.9469 3.11872C16.0347 3.06239 16.1333 3.02501 16.2364 3.00894C16.3394 2.99288 16.4447 2.9985 16.5455 3.02544L19.4435 3.80244C19.5541 3.83204 19.6564 3.88656 19.7427 3.96182C19.8289 4.03709 19.8968 4.1311 19.9411 4.23665C19.9854 4.3422 20.005 4.45649 19.9983 4.57077C19.9916 4.68505 19.9588 4.79628 19.9025 4.89594C20.1125 5.03094 20.3015 5.18094 20.462 5.34144C21.074 5.95344 21.632 6.91644 22.1045 7.99944C22.5845 9.09894 23.003 10.3859 23.312 11.6984C23.621 13.0109 23.822 14.3684 23.858 15.6074C23.894 16.8314 23.7695 18.0104 23.366 18.9224C23.182 19.3319 22.8733 19.6727 22.4841 19.8963C22.0948 20.1199 21.6449 20.2148 21.1985 20.1674C20.2445 20.0669 19.526 19.5764 18.929 19.0079C18.5615 18.6599 18.185 18.2189 17.8205 17.7959C17.6315 17.5739 17.4455 17.3579 17.2685 17.1614C16.1765 15.9554 14.873 14.8709 12.4325 14.8709C9.99201 14.8709 8.68851 15.9554 7.59651 17.1614C7.41801 17.3579 7.23351 17.5739 7.04451 17.7959C6.68001 18.2189 6.30351 18.6584 5.93601 19.0079C5.33901 19.5779 4.62051 20.0669 3.66651 20.1674C3.22012 20.2148 2.77019 20.1199 2.38094 19.8963C1.99168 19.6727 1.68302 19.3319 1.49901 18.9224C1.09401 18.0104 0.971014 16.8299 1.00551 15.6074C1.04151 14.3684 1.24551 13.0124 1.55301 11.6984C1.86201 10.3859 2.28201 9.09894 2.76051 7.99944C3.23301 6.91644 3.79101 5.95344 4.40151 5.34144C4.59761 5.1491 4.8156 4.98045 5.05101 4.83894C5.03375 4.80067 5.0197 4.76103 5.00901 4.72044V4.72194ZM8.06301 5.33994C6.74751 5.61744 5.85951 6.00444 5.46351 6.40194C5.04951 6.81594 4.58301 7.57644 4.13601 8.59944C3.66181 9.71182 3.28636 10.8638 3.01401 12.0419C2.72631 13.2253 2.55598 14.4341 2.50551 15.6509C2.47251 16.7834 2.59851 17.7029 2.87001 18.3149C2.92561 18.4341 3.01713 18.5329 3.13173 18.5975C3.24632 18.6621 3.37825 18.6891 3.50901 18.6749C3.99951 18.6239 4.42401 18.3764 4.90251 17.9219C5.22051 17.6189 5.50251 17.2874 5.82501 16.9109C6.02451 16.6769 6.23901 16.4264 6.48501 16.1549C7.72401 14.7854 9.39951 13.3724 12.4325 13.3724C15.4655 13.3724 17.141 14.7854 18.38 16.1549C18.626 16.4264 18.8405 16.6769 19.04 16.9109C19.361 17.2874 19.6445 17.6189 19.9625 17.9219C20.4395 18.3764 20.864 18.6239 21.356 18.6764C21.4869 18.6905 21.619 18.6632 21.7336 18.5984C21.8482 18.5335 21.9396 18.4344 21.995 18.3149C22.265 17.7029 22.3925 16.7849 22.3595 15.6509C22.309 14.4341 22.1387 13.2253 21.851 12.0419C21.5786 10.8638 21.2032 9.71183 20.729 8.59944C20.282 7.57644 19.814 6.81444 19.4015 6.40194C19.0055 6.00444 18.1175 5.61744 16.802 5.33994C15.527 5.07144 13.9865 4.93494 12.4325 4.93494C10.8785 4.93494 9.33801 5.07144 8.06301 5.33994Z" fill="black"/>
</svg>
