<svg width="25" height="24" viewBox="0 0 25 24" fill="none" xmlns="http://www.w3.org/2000/svg">
<g clip-path="url(#clip0_525_3405)">
<path d="M21.0624 17.107C23.6139 14.83 25.0239 12.25 25.0239 12.25C25.0239 12.25 20.5239 4 13.0239 4C11.5833 4.00496 10.1589 4.30514 8.83887 4.882L9.99387 6.0385C10.965 5.68473 11.9903 5.50252 13.0239 5.5C16.2039 5.5 18.8424 7.252 20.7759 9.1855C21.7064 10.121 22.5406 11.1477 23.2659 12.25C23.1789 12.3805 23.0829 12.5245 22.9734 12.682C22.4709 13.402 21.7284 14.362 20.7759 15.3145C20.5284 15.562 20.2704 15.8065 20.0004 16.0435L21.0624 17.107Z" fill="black"/>
<path d="M18.0378 14.0175C18.3726 13.0812 18.4345 12.0692 18.2166 11.0991C17.9986 10.129 17.5097 9.24075 16.8066 8.53769C16.1035 7.83463 15.2153 7.34567 14.2452 7.12771C13.2751 6.90974 12.2631 6.97173 11.3268 7.30646L12.5613 8.54096C13.1378 8.45845 13.7256 8.51133 14.278 8.69541C14.8305 8.87948 15.3325 9.1897 15.7443 9.60148C16.1561 10.0133 16.4663 10.5153 16.6504 11.0678C16.8345 11.6202 16.8873 12.208 16.8048 12.7845L18.0378 14.0175ZM13.6233 15.966L14.8563 17.199C13.9201 17.5337 12.908 17.5957 11.938 17.3777C10.9679 17.1597 10.0796 16.6708 9.37656 15.9677C8.6735 15.2647 8.18454 14.3764 7.96657 13.4063C7.74861 12.4362 7.8106 11.4242 8.14533 10.488L9.37983 11.7225C9.29732 12.2989 9.3502 12.8867 9.53427 13.4392C9.71835 13.9916 10.0286 14.4937 10.4403 14.9054C10.8521 15.3172 11.3541 15.6274 11.9066 15.8115C12.4591 15.9956 13.0469 16.0485 13.6233 15.966Z" fill="black"/>
<path d="M5.86387 7.736C5.59387 7.976 5.33437 8.219 5.08687 8.4665C4.15634 9.40204 3.32215 10.4287 2.59687 11.531L2.88937 11.963C3.39187 12.683 4.13437 13.643 5.08687 14.5955C7.02037 16.529 9.66037 18.281 12.8389 18.281C13.9129 18.281 14.9239 18.0815 15.8689 17.741L17.0239 18.899C15.7038 19.4758 14.2795 19.776 12.8389 19.781C5.33887 19.781 0.838867 11.531 0.838867 11.531C0.838867 11.531 2.24737 8.9495 4.80037 6.674L5.86237 7.7375L5.86387 7.736ZM21.3079 21.062L3.30787 3.062L4.36987 2L22.3699 20L21.3079 21.062Z" fill="black"/>
</g>
<defs>
<clipPath id="clip0_525_3405">
<rect width="24" height="24" fill="white" transform="translate(0.838867)"/>
</clipPath>
</defs>
</svg>
