<svg width="24" height="24" viewBox="0 0 24 24" fill="none" xmlns="http://www.w3.org/2000/svg">
<path fill-rule="evenodd" clip-rule="evenodd" d="M12.5 0C11.465 0 9.73551 0.3975 8.10801 0.84C6.44301 1.29 4.76451 1.8225 3.77751 2.145C3.36485 2.28128 2.99899 2.5312 2.72198 2.86605C2.44497 3.20091 2.26804 3.60711 2.21151 4.038C1.31751 10.7535 3.39201 15.7305 5.90901 19.023C6.97638 20.4314 8.24905 21.6717 9.68451 22.7025C10.2635 23.112 10.8005 23.4255 11.2565 23.64C11.6765 23.838 12.128 24 12.5 24C12.872 24 13.322 23.838 13.7435 23.64C14.2932 23.3728 14.8191 23.0592 15.3155 22.7025C16.751 21.6718 18.0237 20.4315 19.091 19.023C21.608 15.7305 23.6825 10.7535 22.7885 4.038C22.7321 3.6069 22.5552 3.20046 22.2782 2.86535C22.0012 2.53024 21.6353 2.28004 21.2225 2.1435C19.7897 1.67372 18.3458 1.23859 16.892 0.8385C15.2645 0.399 13.535 0 12.5 0ZM15.719 7.719C15.8598 7.57817 16.0508 7.49905 16.25 7.49905C16.4492 7.49905 16.6402 7.57817 16.781 7.719C16.9218 7.85983 17.001 8.05084 17.001 8.25C17.001 8.44916 16.9218 8.64017 16.781 8.781L12.281 13.281C12.2113 13.3508 12.1286 13.4063 12.0375 13.4441C11.9463 13.4819 11.8487 13.5013 11.75 13.5013C11.6514 13.5013 11.5537 13.4819 11.4626 13.4441C11.3714 13.4063 11.2887 13.3508 11.219 13.281L8.96901 11.031C8.89928 10.9613 8.84396 10.8785 8.80622 10.7874C8.76848 10.6963 8.74906 10.5986 8.74906 10.5C8.74906 10.4014 8.76848 10.3037 8.80622 10.2126C8.84396 10.1215 8.89928 10.0387 8.96901 9.969C9.03874 9.89927 9.12152 9.84395 9.21263 9.80622C9.30374 9.76848 9.40139 9.74905 9.50001 9.74905C9.59862 9.74905 9.69627 9.76848 9.78738 9.80622C9.87849 9.84395 9.96128 9.89927 10.031 9.969L11.75 11.6895L15.719 7.719Z" fill="black"/>
</svg>
