<svg width="24" height="24" viewBox="0 0 24 24" fill="none" xmlns="http://www.w3.org/2000/svg">
<path fill-rule="evenodd" clip-rule="evenodd" d="M11.5 0C10.465 0 8.73551 0.3975 7.10801 0.84C5.44301 1.29 3.76451 1.8225 2.77751 2.145C2.36485 2.28128 1.99899 2.5312 1.72198 2.86605C1.44497 3.20091 1.26804 3.60711 1.21151 4.038C0.317508 10.7535 2.39201 15.7305 4.90901 19.023C5.97638 20.4314 7.24905 21.6717 8.68451 22.7025C9.26351 23.112 9.80051 23.4255 10.2565 23.64C10.6765 23.838 11.128 24 11.5 24C11.872 24 12.322 23.838 12.7435 23.64C13.2932 23.3728 13.8191 23.0592 14.3155 22.7025C15.751 21.6718 17.0237 20.4315 18.091 19.023C20.608 15.7305 22.6825 10.7535 21.7885 4.038C21.7321 3.6069 21.5552 3.20046 21.2782 2.86535C21.0012 2.53024 20.6353 2.28004 20.2225 2.1435C18.7897 1.67372 17.3458 1.23859 15.892 0.8385C14.2645 0.399 12.535 0 11.5 0ZM8.50001 11.25C8.3011 11.25 8.11033 11.171 7.96968 11.0303C7.82903 10.8897 7.75001 10.6989 7.75001 10.5C7.75001 10.3011 7.82903 10.1103 7.96968 9.96967C8.11033 9.82902 8.3011 9.75 8.50001 9.75H14.5C14.6989 9.75 14.8897 9.82902 15.0303 9.96967C15.171 10.1103 15.25 10.3011 15.25 10.5C15.25 10.6989 15.171 10.8897 15.0303 11.0303C14.8897 11.171 14.6989 11.25 14.5 11.25H8.50001Z" fill="black"/>
</svg>
