<svg width="24" height="24" viewBox="0 0 24 24" fill="none" xmlns="http://www.w3.org/2000/svg">
<g clip-path="url(#clip0_676_3515)">
<path d="M12.75 8.75C12.75 8.55109 12.671 8.36032 12.5303 8.21967C12.3897 8.07902 12.1989 8 12 8C11.8011 8 11.6103 8.07902 11.4697 8.21967C11.329 8.36032 11.25 8.55109 11.25 8.75V13.1H6.75C6.55109 13.1 6.36032 13.179 6.21967 13.3197C6.07902 13.4603 6 13.6511 6 13.85C6 14.0489 6.07902 14.2397 6.21967 14.3803C6.36032 14.521 6.55109 14.6 6.75 14.6H12C12.1989 14.6 12.3897 14.521 12.5303 14.3803C12.671 14.2397 12.75 14.0489 12.75 13.85V8.75Z" fill="black"/>
<path d="M9.25129 1.75C9.25129 1.55109 9.33031 1.36032 9.47096 1.21967C9.61162 1.07902 9.80238 1 10.0013 1H13.0013C13.2002 1 13.391 1.07902 13.5316 1.21967C13.6723 1.36032 13.7513 1.55109 13.7513 1.75C13.7513 1.94891 13.6723 2.13968 13.5316 2.28033C13.391 2.42098 13.2002 2.5 13.0013 2.5V3.355C15.0413 3.649 16.8923 4.525 18.3773 5.815C18.3832 5.80843 18.3892 5.80193 18.3953 5.7955L18.9263 5.2645L18.3953 4.735C18.2545 4.59437 18.1753 4.40355 18.1751 4.20453C18.175 4.00551 18.2539 3.81458 18.3945 3.67375C18.5352 3.53292 18.726 3.45372 18.925 3.45358C19.124 3.45344 19.315 3.53237 19.4558 3.673L21.5768 5.7955C21.6484 5.86468 21.7056 5.94744 21.7449 6.03895C21.7842 6.13045 21.8049 6.22886 21.8057 6.32845C21.8066 6.42803 21.7876 6.52679 21.7499 6.61897C21.7122 6.71114 21.6565 6.79488 21.5861 6.8653C21.5157 6.93571 21.4319 6.99141 21.3398 7.02912C21.2476 7.06683 21.1488 7.0858 21.0492 7.08494C20.9497 7.08407 20.8512 7.06338 20.7597 7.02408C20.6682 6.98477 20.5855 6.92763 20.5163 6.856L19.9868 6.325L19.4558 6.856C19.4494 6.86211 19.4429 6.86811 19.4363 6.874C20.9636 8.63703 21.8603 10.8584 21.985 13.1876C22.1097 15.5169 21.4553 17.8213 20.125 19.7373C18.7947 21.6533 16.8643 23.0718 14.6383 23.769C12.4124 24.4662 10.0177 24.4023 7.83208 23.5875C5.64647 22.7727 3.79441 21.2533 2.56813 19.2691C1.34185 17.2849 0.811179 14.9488 1.05986 12.6296C1.30853 10.3103 2.3224 8.13988 3.94146 6.46076C5.56053 4.78164 7.69262 3.68944 10.0013 3.3565V2.5C9.80238 2.5 9.61162 2.42098 9.47096 2.28033C9.33031 2.13968 9.25129 1.94891 9.25129 1.75ZM11.5013 4.75C10.3194 4.7501 9.14909 4.98299 8.0572 5.43537C6.96531 5.88775 5.97321 6.55077 5.13755 7.38657C3.44986 9.07454 2.50184 11.3638 2.50204 13.7507C2.50224 16.1377 3.45064 18.4268 5.13861 20.1145C6.82658 21.8022 9.11585 22.7502 11.5028 22.75C13.8897 22.7498 16.1788 21.8014 17.8665 20.1134C19.5542 18.4255 20.5022 16.1362 20.502 13.7492C20.5018 11.3623 19.5534 9.07319 17.8655 7.38551C16.1775 5.69782 13.8882 4.7498 11.5013 4.75Z" fill="black"/>
</g>
<defs>
<clipPath id="clip0_676_3515">
<rect width="24" height="24" fill="white"/>
</clipPath>
</defs>
</svg>
