<svg width="34" height="34" viewBox="0 0 34 34" fill="none" xmlns="http://www.w3.org/2000/svg">
<circle cx="17" cy="17" r="17" fill="white" fill-opacity="0.13"/>
<g clip-path="url(#clip0_676_3522)">
<path d="M17.75 13.75C17.75 13.5511 17.671 13.3603 17.5303 13.2197C17.3897 13.079 17.1989 13 17 13C16.8011 13 16.6103 13.079 16.4697 13.2197C16.329 13.3603 16.25 13.5511 16.25 13.75V18.1H11.75C11.5511 18.1 11.3603 18.179 11.2197 18.3197C11.079 18.4603 11 18.6511 11 18.85C11 19.0489 11.079 19.2397 11.2197 19.3803C11.3603 19.521 11.5511 19.6 11.75 19.6H17C17.1989 19.6 17.3897 19.521 17.5303 19.3803C17.671 19.2397 17.75 19.0489 17.75 18.85V13.75Z" fill="white"/>
<path d="M14.2513 6.75C14.2513 6.55109 14.3303 6.36032 14.471 6.21967C14.6116 6.07902 14.8024 6 15.0013 6H18.0013C18.2002 6 18.391 6.07902 18.5316 6.21967C18.6723 6.36032 18.7513 6.55109 18.7513 6.75C18.7513 6.94891 18.6723 7.13968 18.5316 7.28033C18.391 7.42098 18.2002 7.5 18.0013 7.5V8.355C20.0413 8.649 21.8923 9.525 23.3773 10.815C23.3832 10.8084 23.3892 10.8019 23.3953 10.7955L23.9263 10.2645L23.3953 9.735C23.2545 9.59437 23.1753 9.40355 23.1751 9.20453C23.175 9.00551 23.2539 8.81458 23.3945 8.67375C23.5352 8.53292 23.726 8.45372 23.925 8.45358C24.124 8.45344 24.315 8.53237 24.4558 8.673L26.5768 10.7955C26.6484 10.8647 26.7056 10.9474 26.7449 11.0389C26.7842 11.1304 26.8049 11.2289 26.8057 11.3284C26.8066 11.428 26.7876 11.5268 26.7499 11.619C26.7122 11.7111 26.6565 11.7949 26.5861 11.8653C26.5157 11.9357 26.4319 11.9914 26.3398 12.0291C26.2476 12.0668 26.1488 12.0858 26.0492 12.0849C25.9497 12.0841 25.8512 12.0634 25.7597 12.0241C25.6682 11.9848 25.5855 11.9276 25.5163 11.856L24.9868 11.325L24.4558 11.856C24.4494 11.8621 24.4429 11.8681 24.4363 11.874C25.9636 13.637 26.8603 15.8584 26.985 18.1876C27.1097 20.5169 26.4553 22.8213 25.125 24.7373C23.7947 26.6533 21.8643 28.0718 19.6383 28.769C17.4124 29.4662 15.0177 29.4023 12.8321 28.5875C10.6465 27.7727 8.79441 26.2533 7.56813 24.2691C6.34185 22.2849 5.81118 19.9488 6.05986 17.6296C6.30853 15.3103 7.3224 13.1399 8.94146 11.4608C10.5605 9.78164 12.6926 8.68944 15.0013 8.3565V7.5C14.8024 7.5 14.6116 7.42098 14.471 7.28033C14.3303 7.13968 14.2513 6.94891 14.2513 6.75ZM16.5013 9.75C15.3194 9.7501 14.1491 9.98299 13.0572 10.4354C11.9653 10.8878 10.9732 11.5508 10.1376 12.3866C8.44986 14.0745 7.50184 16.3638 7.50204 18.7507C7.50224 21.1377 8.45064 23.4268 10.1386 25.1145C11.8266 26.8022 14.1158 27.7502 16.5028 27.75C18.8897 27.7498 21.1788 26.8014 22.8665 25.1134C24.5542 23.4255 25.5022 21.1362 25.502 18.7492C25.5018 16.3623 24.5534 14.0732 22.8655 12.3855C21.1775 10.6978 18.8882 9.7498 16.5013 9.75Z" fill="white"/>
</g>
<defs>
<clipPath id="clip0_676_3522">
<rect width="24" height="24" fill="white" transform="translate(5 5)"/>
</clipPath>
</defs>
</svg>
